<svg width="50" height="22" viewBox="0 0 50 22" fill="none" xmlns="http://www.w3.org/2000/svg">
<path fill-rule="evenodd" clip-rule="evenodd" d="M49.6823 11.3268C49.6823 7.84085 47.9938 5.09021 44.7665 5.09021C41.5257 5.09021 39.5648 7.84085 39.5648 11.2996C39.5648 15.3983 41.8797 17.4681 45.2023 17.4681C46.8227 17.4681 48.0482 17.1004 48.9742 16.583V13.8596C48.0482 14.3226 46.9861 14.6085 45.638 14.6085C44.3172 14.6085 43.1461 14.1455 42.9963 12.5387H49.6551C49.6551 12.3617 49.6823 11.6536 49.6823 11.3268ZM42.9555 10.0332C42.9555 8.49447 43.8951 7.85447 44.7529 7.85447C45.5836 7.85447 46.4687 8.49447 46.4687 10.0332H42.9555ZM34.3087 5.09021C32.9742 5.09021 32.1163 5.7166 31.6397 6.15234L31.4627 5.30809H28.467V21.1855L31.8712 20.4638L31.8848 16.6102C32.3751 16.9643 33.0968 17.4681 34.2951 17.4681C36.7325 17.4681 38.9521 15.5072 38.9521 11.1906C38.9385 7.2417 36.6917 5.09021 34.3087 5.09021ZM33.4917 14.4723C32.6882 14.4723 32.2117 14.1864 31.8848 13.8323L31.8712 8.78043C32.2253 8.38553 32.7155 8.11319 33.4917 8.11319C34.7308 8.11319 35.5887 9.50213 35.5887 11.286C35.5887 13.1106 34.7444 14.4723 33.4917 14.4723ZM23.7827 4.28681L27.2006 3.55149V0.787234L23.7827 1.50894V4.28681Z" fill="#151517"/>
<path d="M27.2006 5.32164H23.7827V17.2365H27.2006V5.32164Z" fill="#151517"/>
<path fill-rule="evenodd" clip-rule="evenodd" d="M20.1203 6.32958L19.9025 5.32192H16.9612V17.2368H20.3655V9.16192C21.1689 8.11341 22.5306 8.30404 22.9527 8.45383V5.32192C22.5169 5.15851 20.9237 4.85894 20.1203 6.32958ZM13.3118 2.36702L9.98928 3.07511L9.97566 13.9823C9.97566 15.9977 11.4872 17.4819 13.5025 17.4819C14.6191 17.4819 15.4361 17.2777 15.8855 17.0326V14.2683C15.4497 14.4453 13.2982 15.0717 13.2982 13.0564V8.22234H15.8855V5.32192H13.2982L13.3118 2.36702ZM4.10673 8.78064C4.10673 8.24957 4.54247 8.04532 5.26417 8.04532C6.29907 8.04532 7.6063 8.35851 8.6412 8.91681V5.71681C7.51098 5.26745 6.39439 5.09043 5.26417 5.09043C2.49992 5.09043 0.661621 6.53383 0.661621 8.94404C0.661621 12.7023 5.83609 12.1032 5.83609 13.7236C5.83609 14.35 5.29141 14.5543 4.52886 14.5543C3.39864 14.5543 1.95524 14.0913 0.811408 13.4649V16.7057C2.07779 17.2504 3.35779 17.4819 4.52886 17.4819C7.3612 17.4819 9.30843 16.0794 9.30843 13.6419C9.29481 9.58404 4.10673 10.3057 4.10673 8.78064Z" fill="#151517"/>
</svg>
