<svg width="125" height="22" viewBox="0 0 125 22" fill="none" xmlns="http://www.w3.org/2000/svg">
<path d="M17.366 16.9316C17.4041 16.97 17.4342 17.0156 17.4545 17.0657C17.4748 17.1159 17.485 17.1695 17.4844 17.2236V19.1508C17.4833 19.2049 17.4714 19.2582 17.4495 19.3076C17.4276 19.357 17.3961 19.4016 17.3568 19.4388C17.2751 19.5185 17.1474 19.544 17.0524 19.5613L2.47269 19.5511C2.41824 19.5506 2.36443 19.5393 2.31432 19.518C2.26422 19.4967 2.21881 19.4657 2.18069 19.4268C2.14256 19.3879 2.11247 19.3419 2.09213 19.2914C2.07179 19.2409 2.0616 19.1869 2.06214 19.1324V16.9469C2.06214 16.8682 2.11014 16.7661 2.18878 16.6793L13.0909 4.52815H1.88341C1.82975 4.52897 1.77647 4.51907 1.72668 4.49903C1.67689 4.479 1.6316 4.44923 1.59346 4.41147C1.55533 4.37371 1.52511 4.32872 1.50457 4.27914C1.48404 4.22956 1.4736 4.17637 1.47388 4.12271L1.48818 2.1496C1.48818 2.09552 1.49891 2.04198 1.51976 1.99208C1.54061 1.94218 1.57115 1.89692 1.60963 1.85892C1.64811 1.82092 1.69374 1.79093 1.7439 1.77071C1.79405 1.75048 1.84772 1.74041 1.9018 1.74109H1.90588L16.4866 1.75947C16.541 1.76014 16.5946 1.7715 16.6445 1.7929C16.6945 1.81431 16.7397 1.84534 16.7776 1.88422C16.8156 1.9231 16.8455 1.96908 16.8656 2.01952C16.8858 2.06996 16.8958 2.12388 16.8952 2.1782V4.25751C16.8952 4.41071 16.8625 4.51283 16.7859 4.59862L5.90316 16.809H17.0759C17.13 16.8092 17.1834 16.8202 17.2332 16.8412C17.283 16.8622 17.3281 16.893 17.366 16.9316ZM37.3278 4.17173C38.1767 5.0274 38.8473 6.04301 39.3008 7.15972C39.7543 8.27642 39.9818 9.47203 39.9699 10.6773C39.9639 11.8823 39.7189 13.0742 39.2491 14.1838C38.7793 15.2935 38.094 16.299 37.2329 17.1419C35.4844 18.8648 33.1631 19.8279 30.7273 19.786C29.5221 19.7801 28.33 19.535 27.2201 19.065C26.1102 18.595 25.1046 17.9094 24.2616 17.048C23.4124 16.1925 22.7414 15.1769 22.2875 14.0602C21.8337 12.9435 21.6059 11.7478 21.6175 10.5425C21.6236 9.33711 21.8689 8.14496 22.3391 7.03508C22.8092 5.92521 23.495 4.91967 24.3566 4.07675C25.2122 3.22771 26.2278 2.55691 27.3445 2.10321C28.4612 1.64952 29.6568 1.42194 30.8621 1.43368C32.0672 1.43979 33.2591 1.68493 34.3688 2.15493C35.4785 2.62493 36.4849 3.31043 37.3278 4.17173ZM37.0358 10.6558C37.0455 9.00131 36.3989 7.41042 35.2376 6.2319C34.0764 5.05338 32.4952 4.3834 30.8407 4.36883C27.4061 4.35045 24.5782 7.1222 24.5527 10.5639C24.5429 12.2186 25.1897 13.8096 26.3512 14.9882C27.5127 16.1667 29.0941 16.8366 30.7488 16.8509H30.7947C32.4411 16.8485 34.0201 16.1967 35.1886 15.0369C36.3572 13.8771 37.021 12.3021 37.0358 10.6558ZM78.9316 19.2621C78.9462 19.2941 78.9523 19.3294 78.9492 19.3645C78.9462 19.3996 78.9341 19.4332 78.9142 19.4623C78.8956 19.4917 78.8698 19.5158 78.8392 19.5325C78.8087 19.5491 78.7744 19.5576 78.7396 19.5573H76.0792C76.0388 19.5566 75.9995 19.5445 75.9657 19.5224C75.932 19.5004 75.9051 19.4693 75.8882 19.4327L74.2163 15.514H65.1495L63.3908 19.4327C63.3737 19.4698 63.3463 19.5012 63.312 19.5233C63.2776 19.5453 63.2376 19.5571 63.1968 19.5573H60.5047C60.4694 19.5575 60.4347 19.5485 60.404 19.5314C60.3732 19.5142 60.3474 19.4893 60.329 19.4592C60.3096 19.4301 60.298 19.3965 60.2954 19.3616C60.2927 19.3268 60.299 19.2918 60.3137 19.2601L68.2358 1.89428C68.2766 1.80645 68.3409 1.75028 68.3992 1.75028H71.176C71.2506 1.75028 71.3149 1.87794 71.3302 1.91368L78.9316 19.2621ZM72.9918 12.728L69.7575 5.35232L66.4148 12.7259L72.9918 12.728ZM55.4392 16.76H47.8582V1.91471C47.8588 1.89308 47.855 1.87156 47.8472 1.85139C47.8393 1.83123 47.8276 1.81282 47.8125 1.79724C47.7975 1.78166 47.7796 1.76921 47.7597 1.76062C47.7399 1.75204 47.7185 1.74748 47.6969 1.74722L46.3947 1.74926L45.0936 1.74722C45.072 1.74748 45.0506 1.75204 45.0308 1.76062C45.0109 1.76921 44.993 1.78166 44.9779 1.79724C44.9629 1.81282 44.9512 1.83123 44.9433 1.85139C44.9355 1.87156 44.9317 1.89308 44.9323 1.91471V19.3836C44.9317 19.4161 44.9408 19.4481 44.9584 19.4754C44.9761 19.5026 45.0015 19.524 45.0313 19.5368C45.0518 19.5457 45.0729 19.5501 45.0946 19.5501L55.2727 19.5583H55.4392C55.4607 19.5587 55.4821 19.5548 55.5022 19.5469C55.5222 19.539 55.5405 19.5272 55.556 19.5122C55.5714 19.4972 55.5838 19.4793 55.5923 19.4595C55.6008 19.4397 55.6054 19.4185 55.6056 19.3969V16.9213C55.6054 16.8998 55.6008 16.8785 55.5923 16.8587C55.5838 16.8389 55.5714 16.821 55.556 16.806C55.5405 16.791 55.5222 16.7792 55.5022 16.7713C55.4821 16.7634 55.4607 16.7596 55.4392 16.76ZM123.371 11.2829C121.633 14.9819 116.635 17.8691 113.81 19.2601C113.197 19.5634 112.689 19.7911 112.509 19.8657C112.351 19.9364 112.182 19.9779 112.01 19.9882L111.958 19.9903L111.945 19.9893C111.772 19.9786 111.601 19.9364 111.443 19.8647C111.005 19.6753 110.572 19.4737 110.145 19.2601C108.266 18.3348 105.426 16.7477 103.223 14.7001C101.02 16.7477 98.1806 18.3358 96.3015 19.2601C95.6887 19.5634 95.1801 19.7911 95.0014 19.8657C94.9983 19.8657 94.7787 19.9729 94.5009 19.9882L94.4499 19.9903L94.4366 19.9893C94.1588 19.9729 93.9382 19.8667 93.9341 19.8647C93.4962 19.6753 93.0637 19.4737 92.6371 19.2601C89.8112 17.8691 84.8121 14.9819 83.0749 11.2819C82.6854 10.4541 82.4644 9.55713 82.4246 8.64317C82.3848 7.72921 82.5271 6.81645 82.8431 5.95794C83.1693 5.06167 83.6706 4.23927 84.3177 3.53863C84.9649 2.83799 85.745 2.27312 86.6126 1.87692C89.0402 0.753515 91.8661 1.03437 93.9852 2.61224C94.1438 2.73071 94.2974 2.85564 94.4458 2.98705L94.4683 3.00747L94.4918 2.98705C94.6397 2.85546 94.793 2.73008 94.9513 2.61122C97.0715 1.03437 99.8963 0.752493 102.325 1.87692C102.635 2.02126 102.935 2.18603 103.223 2.37122C103.511 2.18603 103.81 2.02126 104.121 1.87692C106.549 0.753515 109.375 1.03437 111.494 2.61224C111.653 2.73071 111.806 2.85564 111.955 2.98705L111.977 3.00747L112.001 2.98705C112.148 2.85564 112.302 2.73037 112.461 2.61122C114.58 1.03437 117.405 0.752493 119.834 1.87692C120.701 2.27312 121.481 2.83788 122.128 3.53833C122.775 4.23878 123.276 5.06093 123.602 5.95692C123.919 6.81565 124.061 7.72874 124.022 8.64307C123.982 9.55741 123.761 10.4547 123.371 11.2829ZM103.223 10.7212C103.329 10.5455 103.426 10.3651 103.514 10.1799C103.757 9.66101 103.895 9.09886 103.919 8.52621C103.943 7.95357 103.853 7.38186 103.654 6.84441C103.542 6.53749 103.397 6.24341 103.223 5.96713C103.048 6.24341 102.904 6.53749 102.792 6.84441C102.593 7.38193 102.503 7.95367 102.527 8.52632C102.551 9.09897 102.689 9.66107 102.933 10.1799C103.02 10.3651 103.116 10.5455 103.223 10.7212ZM101.486 12.7811C101.139 12.3115 100.836 11.8098 100.584 11.2829C100.194 10.4549 99.973 9.55783 99.9332 8.64368C99.8934 7.72954 100.036 6.8166 100.352 5.95794C100.573 5.34774 100.877 4.77052 101.254 4.2422L101.235 4.23198C100.611 3.94055 99.9305 3.78993 99.2417 3.79079C98.2419 3.79079 97.2952 4.10228 96.5037 4.6936C96.0747 5.01224 95.5937 5.45139 94.9922 6.48492C94.8278 6.78722 94.5765 7.24781 94.5541 7.27947C94.5367 7.30705 94.503 7.35709 94.4683 7.35709C94.4356 7.35709 94.4019 7.30705 94.3794 7.27539C94.2324 7.01282 94.0878 6.74898 93.9454 6.4839C93.3428 5.45037 92.8628 5.01326 92.4339 4.6936C91.6434 4.10347 90.6823 3.78659 89.6958 3.79079C89.0065 3.79079 88.3355 3.93888 87.7023 4.233C87.1458 4.48562 86.6453 4.84669 86.23 5.29509C85.8148 5.74348 85.4931 6.2702 85.2839 6.84441C85.0848 7.38186 84.9946 7.95357 85.0187 8.52621C85.0427 9.09886 85.1804 9.66101 85.4238 10.1799C86.8771 13.2744 91.7537 15.9327 93.783 16.9326C94.0056 17.0429 94.2293 17.1501 94.454 17.2543L94.4683 17.2614L94.4836 17.2543C94.7083 17.1501 94.9319 17.0429 95.1546 16.9326C96.5833 16.2279 99.4235 14.7021 101.486 12.7811ZM121.162 6.84441C120.953 6.27001 120.632 5.7431 120.216 5.29452C119.801 4.84594 119.301 4.48471 118.744 4.23198C118.12 3.94055 117.439 3.78993 116.75 3.79079C115.751 3.79079 114.804 4.10228 114.012 4.69258C113.582 5.01224 113.102 5.45139 112.5 6.48492C112.337 6.78722 112.085 7.24781 112.063 7.27947C112.045 7.30705 112.011 7.35709 111.977 7.35709C111.944 7.35709 111.911 7.30705 111.888 7.27539C111.741 7.01287 111.596 6.74903 111.454 6.4839C110.852 5.45037 110.372 5.01224 109.943 4.69258C109.152 4.10282 108.191 3.78629 107.205 3.79079C106.515 3.79079 105.844 3.93888 105.211 4.23198L105.192 4.2422C105.569 4.7702 105.872 5.34722 106.093 5.95794C106.41 6.81638 106.552 7.7291 106.512 8.64306C106.473 9.55703 106.252 10.454 105.863 11.2819C105.61 11.8092 105.308 12.3112 104.96 12.7811C107.023 14.7021 109.863 16.2289 111.292 16.9326C111.514 17.0429 111.738 17.1501 111.963 17.2543L111.977 17.2614L111.992 17.2543C112.217 17.1501 112.441 17.0429 112.663 16.9326C114.692 15.9327 119.569 13.2733 121.022 10.1799C121.266 9.66101 121.404 9.09886 121.428 8.52621C121.452 7.95357 121.362 7.38186 121.162 6.84441Z" fill="#151517"/>
</svg>
