<svg width="88" height="22" viewBox="0 0 88 22" fill="none" xmlns="http://www.w3.org/2000/svg">
<path d="M70.8218 10.2019C70.6762 8.62707 69.9078 7.31386 69.3559 5.90417C68.7081 4.88297 67.7879 3.89328 66.7975 3.21386C66.0241 2.82015 65.3887 2.07729 64.4692 2.02123C62.495 1.17016 60.0815 0.986128 57.798 1.29097C57.5685 0.821216 57.0353 0.910081 56.6035 0.8336C55.9955 1.08738 55.2726 1.06261 54.6865 1.38548C53.7419 1.60189 52.8652 2.3063 52.2624 3.07458C51.2146 3.95238 51.0216 5.05419 50.323 6.12362C50.2465 6.47278 50.1438 7.0792 49.9328 7.37035C48.9995 11.3061 49.6472 15.5708 52.999 18.1092C54.8893 19.5115 56.9277 20.5709 59.2123 21.035C62.64 21.3592 65.9544 20.8704 68.2136 18.1092C70.3459 15.9964 71.1397 13.1597 70.8218 10.2019ZM68.3524 15.0934C67.0395 17.0433 65.0771 19.1634 62.6834 19.3844C61.3079 19.7284 59.4748 19.7851 58.2024 19.1567C55.7087 18.122 52.6948 16.693 51.6277 13.8573C50.2707 10.6582 51.1705 6.81217 53.3165 4.26069C54.2104 3.08002 55.5377 2.53444 56.9277 2.34454C57.029 2.53444 57.1441 2.79495 57.3849 2.84536C58.2026 2.95921 58.8825 2.45861 59.7593 2.57224C63.053 2.75649 66.4035 3.92479 68.1688 7.04726C69.5202 9.31258 69.8381 12.7903 68.3524 15.0934Z" fill="#151517"/>
<path d="M55.7413 4.44481C56.0269 4.99061 55.8185 5.68285 55.5579 6.18367C55.2268 6.56456 54.7129 6.67276 54.2307 6.54587C53.9712 6.25407 54.0403 5.77128 54.0914 5.403C54.1696 4.87415 54.4273 4.38767 55.006 4.1717C55.2841 4.19125 55.5193 4.2925 55.7413 4.44481ZM10.7728 6.04418L5.10419 10.6585L12.0483 16.0089L10.6772 17.6085L3.27609 12.0734L2.50208 12.6704V17.1954L0.262207 17.2395V4.58452H2.45102L2.48948 9.77264L9.35709 4.40114L10.7728 6.04418ZM18.1282 13.2664C18.2495 14.3135 19.3344 15.0937 20.2729 15.3225C21.7779 15.5007 23.5232 15.4003 24.3426 13.9526L24.5167 13.4865L24.5714 12.8988L24.6151 4.7175L26.855 4.67339L26.8113 13.1719C26.646 14.6955 25.7257 16.2173 24.2522 16.871C22.1519 17.836 18.9972 17.7658 17.2588 16.0523C16.3379 15.19 15.9585 14.1106 15.8868 12.8988V4.67339H18.0391L18.1282 13.2664ZM38.7517 9.54189L42.992 4.71793H44.9063L44.9003 17.3977L42.7282 17.4227L42.7169 8.39098C42.6604 8.31515 38.7517 12.7628 38.7517 12.7628C37.4694 11.3992 34.7198 8.35861 34.7198 8.35861V17.3977L32.5677 17.379V4.71793H34.5357L38.7517 9.54189ZM85.0794 13.8157V4.9465H87.18V17.5311L85.3035 17.5574L77.493 8.65454V17.512H75.3931L75.4372 4.85699H77.282C77.282 4.85699 85.021 13.8661 85.0794 13.8157ZM66.3862 6.59063C66.6843 6.90112 66.7732 7.35762 66.6587 7.78326C66.5181 8.25909 66.0696 8.53221 65.6563 8.74145C65.3957 8.7358 65.1604 8.69082 64.9707 8.51309C64.7617 7.93514 64.9507 7.29417 65.1543 6.77423C65.4212 6.36162 66.0559 6.19063 66.3862 6.59063ZM61.7584 16.9923C62.4262 17.208 63.283 17.0814 63.7715 17.633C63.8093 17.9572 63.7391 18.2434 63.492 18.4593C62.7932 18.636 62.2606 18.1221 61.6646 18.3192C60.5794 18.0213 59.0868 18.6166 58.3315 17.633C58.255 17.3606 58.2426 16.9599 58.5164 16.808C59.6524 16.5984 60.6485 16.9997 61.7584 16.9923Z" fill="#151517"/>
</svg>
