<svg width="33" height="22" viewBox="0 0 33 22" fill="none" xmlns="http://www.w3.org/2000/svg">
<path d="M16.1137 20.7635H17.6618C18.4921 20.7635 19.1653 20.0668 19.1424 19.234L18.3795 3.12667C18.3572 2.31614 17.7069 1.664 16.8989 1.664C16.0908 1.664 15.4405 2.31676 15.4183 3.12667L14.6325 19.234C14.5879 20.0668 15.2611 20.7635 16.1137 20.7635ZM24.7072 15.2073C24.7072 16.5116 25.7615 17.5461 27.0627 17.5461C27.3696 17.546 27.6734 17.4853 27.9568 17.3677C28.2402 17.25 28.4976 17.0777 28.7144 16.8604C28.9311 16.6432 29.103 16.3854 29.22 16.1018C29.3371 15.8181 29.3971 15.5142 29.3966 15.2073C29.3966 13.9018 28.3416 12.8444 27.0627 12.8444C26.7529 12.8447 26.4461 12.906 26.16 13.0249C25.8739 13.1437 25.614 13.3179 25.3953 13.5373C25.1765 13.7567 25.0031 14.017 24.8851 14.3035C24.767 14.59 24.7066 14.8975 24.7072 15.2073ZM25.1558 5.98272C25.1553 6.23351 25.2043 6.48194 25.2999 6.7138C25.3955 6.94565 25.5358 7.15639 25.7129 7.33396C25.89 7.51152 26.1004 7.65243 26.332 7.74863C26.5636 7.84483 26.8119 7.89443 27.0627 7.89459C27.3136 7.89451 27.5619 7.84497 27.7936 7.74881C28.0253 7.65265 28.2357 7.51175 28.4129 7.33417C28.5901 7.1566 28.7305 6.94584 28.8261 6.71394C28.9218 6.48204 28.9708 6.23357 28.9703 5.98272C28.9708 5.73188 28.9218 5.4834 28.8261 5.25151C28.7305 5.01961 28.5901 4.80884 28.4129 4.63127C28.2357 4.4537 28.0253 4.3128 27.7936 4.21663C27.5619 4.12047 27.3136 4.07093 27.0627 4.07085C26.8119 4.07102 26.5636 4.12061 26.332 4.21681C26.1004 4.31301 25.89 4.45392 25.7129 4.63149C25.5358 4.80905 25.3955 5.01979 25.2999 5.25165C25.2043 5.4835 25.1553 5.73193 25.1558 5.98272ZM22.8894 8.09753C22.5652 7.43154 22.3966 6.70056 22.3963 5.95983C22.4186 3.44037 24.4826 1.39362 26.9959 1.34845C29.5983 1.30328 31.7075 3.41809 31.7075 6.005C31.7075 6.74747 31.5281 7.46705 31.2138 8.09692V8.11981C31.2138 8.11981 31.2138 8.14208 31.1915 8.14208L30.9224 8.68223C30.7469 9.0214 30.6746 9.40453 30.7144 9.7843C30.7542 10.1641 30.9044 10.5239 31.1463 10.8193L31.5733 11.3595C32.4682 12.442 32.9596 13.8016 32.9635 15.2061C32.9635 18.4458 30.3389 21.0778 27.1302 21.123C23.8323 21.1675 21.1174 18.4909 21.1174 15.1832C21.1174 13.7212 21.6334 12.394 22.5083 11.3595L22.9346 10.8416C23.4283 10.2117 23.518 9.35665 23.1592 8.63706L22.8894 8.09753ZM4.37892 15.2073C4.37892 16.5122 5.43323 17.5467 6.73442 17.5467C7.04135 17.5467 7.34525 17.4861 7.62873 17.3684C7.91221 17.2507 8.16971 17.0783 8.38648 16.861C8.60326 16.6437 8.77506 16.3858 8.89204 16.1021C9.00903 15.8183 9.06891 15.5143 9.06826 15.2073C9.06826 13.9018 8.01333 12.845 6.73442 12.845C6.42418 12.8437 6.11676 12.904 5.82997 13.0223C5.54318 13.1407 5.28273 13.3147 5.0637 13.5345C4.84467 13.7542 4.67141 14.0152 4.55397 14.3023C4.43654 14.5895 4.37725 14.8971 4.37954 15.2073M4.82812 5.98334C4.82763 6.23413 4.87659 6.48256 4.97218 6.71442C5.06778 6.94627 5.20815 7.15701 5.38525 7.33457C5.56236 7.51214 5.77273 7.65305 6.00434 7.74925C6.23595 7.84545 6.48425 7.89505 6.73504 7.89521C6.98588 7.89513 7.23425 7.84559 7.46593 7.74943C7.69761 7.65327 7.90805 7.51237 8.08522 7.33479C8.26239 7.15722 8.40282 6.94645 8.49845 6.71456C8.59409 6.48266 8.64306 6.23418 8.64258 5.98334C8.64306 5.7325 8.59409 5.48402 8.49845 5.25212C8.40282 5.02023 8.26239 4.80946 8.08522 4.63189C7.90805 4.45431 7.69761 4.31342 7.46593 4.21725C7.23425 4.12109 6.98588 4.07155 6.73504 4.07147C5.65845 4.07147 4.82812 4.92594 4.82812 5.98334ZM2.56048 8.09815C2.23613 7.43239 2.0673 6.70163 2.06674 5.96107C2.09025 3.44099 4.13205 1.39424 6.6447 1.34907C9.24769 1.3039 11.3563 3.41871 11.3563 6.00623C11.3563 6.74871 11.1769 7.46829 10.8632 8.09815V8.12043C10.8632 8.12043 10.8632 8.14332 10.8403 8.14332L10.5712 8.68285C10.3958 9.02208 10.3236 9.40524 10.3635 9.78502C10.4034 10.1648 10.5537 10.5246 10.7958 10.8199L11.2221 11.3601C12.137 12.4416 12.638 13.813 12.6358 15.2296C12.6358 18.447 10.0106 21.1013 6.80186 21.1465C3.50404 21.1911 0.789062 18.5144 0.789062 15.2067C0.789062 13.7447 1.30508 12.4175 2.17996 11.383L2.60627 10.8651C3.10001 10.2352 3.18973 9.38016 2.83025 8.66058L2.56048 8.09815Z" fill="#151517"/>
</svg>
