<svg width="122" height="22" viewBox="0 0 122 22" fill="none" xmlns="http://www.w3.org/2000/svg">
<path d="M4.06296 16.6494V9.03371H1.54419V6.40475H4.06296V2.70583H6.96408V6.39908H10.5607V9.02803H6.96408V16.6426C6.96408 17.615 7.38841 18.1312 8.32444 18.1312H10.4325V20.7602H8.32444C5.84879 20.7681 4.06296 19.166 4.06296 16.6494ZM18.2929 18.4228C20.8116 18.4228 22.7382 16.6755 22.7382 13.5859C22.7382 10.4951 20.8128 8.75005 18.2929 8.75005C15.773 8.75005 13.8113 10.4917 13.8113 13.5859C13.8113 16.68 15.7435 18.4228 18.2929 18.4228ZM10.8137 13.5859C10.8137 8.63545 14.1267 6.00082 17.6972 6.00082C19.82 6.00082 21.6353 6.83137 22.7279 8.42667V6.39908H25.6302V20.7681H22.7382V18.7315C21.6353 20.329 19.82 21.1585 17.7074 21.1585C14.1437 21.1585 10.8228 18.5295 10.8228 13.5757L10.8137 13.5859ZM27.4126 16.7901H30.4306C30.771 18.0234 31.6491 18.5919 32.8949 18.5919C34.1997 18.5919 35.1074 17.9088 35.1074 16.7617C35.1074 13.4145 27.5737 16.3056 27.5737 10.4373C27.5737 7.77085 29.894 6.00195 32.643 6.00195C35.3921 6.00195 37.4877 7.60179 37.7986 10.123H34.7806C34.4686 9.11313 33.7243 8.57872 32.6272 8.57872C31.53 8.57872 30.56 9.20958 30.56 10.2977C30.56 13.5609 38.0936 10.7016 38.0936 16.6528C38.0936 19.2579 35.8312 21.1823 32.8745 21.1823C29.9178 21.1823 27.7235 19.5302 27.4126 16.7912M47.7012 6.40702H50.8474L46.1219 12.9176L51.3886 20.7681H48.0166L42.8849 13.1366L47.7012 6.40702ZM39.9974 2.67746H42.8985V20.7693H40.0008L39.9974 2.67746ZM52.2611 6.39908H55.1611V8.52993C55.6972 7.7437 56.4189 7.10183 57.2623 6.66118C58.1039 6.22039 59.041 5.99359 59.991 6.00082V9.02123C57.2158 8.5356 55.1452 9.85405 55.1452 12.7746V20.7681H52.2531L52.2611 6.39908ZM65.4585 18.6532C67.1865 18.6532 69.0302 17.5367 69.0302 15.3593V13.84L65.1204 14.8714C63.8156 15.2459 63.3096 15.8177 63.3096 16.7901C63.3051 18.079 64.2672 18.6532 65.4585 18.6532ZM60.3869 16.9932C60.3869 14.6434 61.7484 13.3646 64.4964 12.6101L69.0302 11.3972V10.5882C69.0302 9.5216 68.1509 8.72395 66.5931 8.72395C65.3178 8.72395 64.1004 9.20731 63.6942 10.8696H60.5866C61.0972 7.60633 63.4843 5.97586 66.5931 5.97586C69.9344 5.97586 71.9177 7.79582 71.9177 10.5825V20.7602H69.0188V19.2148C67.9977 20.6308 66.2981 21.1641 64.8243 21.1641C62.3146 21.1721 60.3869 19.7606 60.3869 16.9932ZM81.2167 18.4228C83.7411 18.4228 85.6665 16.6755 85.6665 13.5859C85.6665 10.4951 83.7411 8.75005 81.2167 8.75005C78.6923 8.75005 76.7442 10.4917 76.7442 13.587C76.7442 16.6823 78.6696 18.4228 81.2167 18.4228ZM76.7442 18.7666V20.7681H73.8363V2.67746H76.7442V8.40512C77.8742 6.8291 79.6601 6.00649 81.8124 6.00649C85.3545 6.00649 88.697 8.63545 88.697 13.5938C88.697 18.5522 85.3522 21.1732 81.8101 21.1732C79.6578 21.1732 77.8731 20.329 76.7419 18.7655L76.7442 18.7666ZM97.8326 18.4228C100.351 18.4228 102.278 16.6755 102.278 13.5859C102.278 10.4951 100.35 8.75005 97.8326 8.75005C95.3161 8.75005 93.351 10.4917 93.351 13.5859C93.351 16.68 95.2776 18.4217 97.827 18.4217L97.8326 18.4228ZM93.351 18.7666V20.7681H90.4499V2.67746H93.3499V8.40512C94.4799 6.8291 96.268 6.00649 98.4215 6.00649C101.961 6.00649 105.303 8.63545 105.303 13.5938C105.303 18.5522 101.963 21.1732 98.4226 21.1732C96.2635 21.1732 94.4822 20.329 93.351 18.7655M107.009 6.39908H109.915V20.7681H107.016L107.009 6.39908ZM108.456 0.816656C108.729 0.82006 109 0.882465 109.247 1.0016C109.616 1.18356 109.916 1.48278 110.098 1.85262C110.28 2.22245 110.334 2.64213 110.253 3.04622C110.168 3.50058 109.916 3.90659 109.546 4.18426C109.177 4.46167 108.718 4.59034 108.259 4.54473C107.8 4.49912 107.375 4.28256 107.068 3.93805C106.761 3.5923 106.593 3.14451 106.598 2.682C106.59 2.4358 106.633 2.19051 106.723 1.96151C106.814 1.7325 106.951 1.52468 107.126 1.35107C107.297 1.17747 107.503 1.03904 107.728 0.947139C107.956 0.856368 108.2 0.813252 108.445 0.822329L108.456 0.816656ZM114.006 16.6494V9.03371H111.483V6.40475H114.006V2.70583H116.906V6.39908H120.504V9.02803H116.906V16.6426C116.906 17.615 117.329 18.1312 118.264 18.1312H120.373V20.7602H118.264C115.783 20.7681 114.006 19.166 114.006 16.6494Z" fill="#151517"/>
</svg>
