<svg width="121" height="22" viewBox="0 0 121 22" fill="none" xmlns="http://www.w3.org/2000/svg">
<path fill-rule="evenodd" clip-rule="evenodd" d="M32.2771 0.787234L22.0555 20.7687H12.4537L16.7306 12.4875H16.5379C13.0096 17.069 7.74431 20.0849 0.241943 20.7687V12.602C0.241943 12.602 5.04104 12.3179 7.86242 9.35173H0.242831V0.787234H8.80821V7.83136H9.00092L12.5017 0.787234H18.9783V7.78785H19.171L22.8032 0.787234H32.2771Z" fill="#151517"/>
<path d="M88.0139 18.5637H90.7722V2.72955H88.0139V18.5637Z" fill="#151517"/>
<path fill-rule="evenodd" clip-rule="evenodd" d="M72.8102 18.402C73.41 18.6507 74.0198 18.775 74.6397 18.775C75.6633 18.775 76.5795 18.5258 77.3882 18.0273C78.1956 17.5299 78.847 16.8157 79.2683 15.9661C79.7123 15.0839 79.9346 14.0837 79.9352 12.9653C79.9352 11.8469 79.7061 10.847 79.2478 9.96543C78.7902 9.08328 78.1534 8.39947 77.3376 7.914C76.5229 7.4226 75.5964 7.17987 74.558 7.18579C73.9056 7.1847 73.2598 7.3155 72.6593 7.57032C72.0753 7.80913 71.5561 8.18284 71.1442 8.66086L71.0528 8.7692V2.74102H68.2847V18.5654H71.0332L71.0279 17.0868C71.0989 17.1744 71.175 17.2594 71.2561 17.3417C71.6974 17.7964 72.226 18.1574 72.8102 18.4029M75.6378 15.8471C75.1867 16.1224 74.6716 16.2603 74.0926 16.2609C73.5383 16.2655 72.9933 16.1187 72.5163 15.8364C72.0399 15.5477 71.6464 15.1405 71.3742 14.6544C71.0984 14.1559 70.9604 13.5899 70.9604 12.9564C70.9539 12.3229 71.0883 11.7569 71.3636 11.2584C71.6291 10.77 72.0243 10.3644 72.5056 10.0862C72.9858 9.80318 73.5354 9.65985 74.0926 9.67237C74.6716 9.66585 75.1867 9.80054 75.6378 10.0764C76.0961 10.3458 76.4463 10.733 76.6884 11.238C76.9377 11.7365 77.062 12.3093 77.0614 12.9564C77.0614 13.6035 76.9371 14.1763 76.6884 14.6748C76.4598 15.1595 76.0947 15.5669 75.6378 15.8471Z" fill="#151517"/>
<path d="M36.2739 3.68949H39.4266L42.2453 13.9893L45.2451 3.68949H47.872L51.1259 13.7815L53.8345 3.68949H56.7243L52.4607 18.5628H49.7432L46.4343 8.70351L43.3971 18.5628H40.6485L36.2739 3.68949Z" fill="#151517"/>
<path fill-rule="evenodd" clip-rule="evenodd" d="M61.3814 18.8258C60.2838 18.8324 59.2933 18.5896 58.4099 18.0976C57.5442 17.6084 56.8282 16.8924 56.339 16.0267C55.8399 15.1445 55.5903 14.138 55.5903 13.0072C55.5909 11.9084 55.8473 10.9147 56.3594 10.026C56.8514 9.15651 57.5706 8.43725 58.4401 7.94528C59.3164 7.44678 60.2932 7.19723 61.3707 7.19664C62.5844 7.19664 63.6454 7.46602 64.5536 8.00478C65.4695 8.54354 66.1533 9.30816 66.605 10.2987C67.0626 11.2814 67.2275 12.4099 67.0996 13.684H58.4463C58.47 14.1901 58.5967 14.6514 58.8264 15.0676C59.0828 15.5252 59.4398 15.8822 59.8974 16.1386C60.3551 16.3949 60.8669 16.5228 61.4329 16.5222C61.8436 16.518 62.2504 16.4426 62.6353 16.2993C63.006 16.1513 63.3192 15.9524 63.5749 15.7025C63.8378 15.4521 64.0231 15.1694 64.1308 14.8544H67.0215C66.8498 15.6217 66.4886 16.3336 65.9709 16.9254C65.4452 17.5257 64.7851 17.9937 63.9905 18.3294C63.1942 18.6669 62.3248 18.8327 61.3823 18.8267M58.8362 10.9052C58.6746 11.1876 58.5612 11.4949 58.5005 11.8146H64.2374C64.1996 11.4163 64.0694 11.0322 63.8573 10.693C63.6195 10.3002 63.2765 9.98177 62.8671 9.77381C62.4503 9.5512 61.9791 9.44019 61.4533 9.44078C60.9201 9.43451 60.3944 9.5667 59.9276 9.82442C59.4714 10.0779 59.0938 10.4521 58.8362 10.9061" fill="#151517"/>
<path d="M81.9627 7.42842C81.9627 6.52555 82.1682 5.72363 82.579 5.02265C82.9851 4.31875 83.5854 3.74681 84.3081 3.37529C85.0559 2.97803 85.9279 2.77259 86.9243 2.75898V5.21359C86.4602 5.22069 86.0626 5.31838 85.7317 5.50665C85.4068 5.69059 85.1457 5.96906 84.983 6.30502C84.8156 6.65546 84.7268 7.03827 84.7228 7.42664H86.8631V9.76136H84.721V18.5621H81.9627V9.76136H80.1848V7.42575H81.9636L81.9627 7.42842Z" fill="#151517"/>
<path fill-rule="evenodd" clip-rule="evenodd" d="M97.7861 18.8061C96.6612 18.8061 95.6545 18.5598 94.7658 18.0672C93.8976 17.5824 93.1779 16.8701 92.6842 16.0069C92.1857 15.1248 91.9361 14.1245 91.9355 13.0062C91.9355 11.8813 92.1851 10.8778 92.6842 9.99562C93.1715 9.12483 93.8925 8.40754 94.7658 7.92465C95.6539 7.43326 96.6606 7.18726 97.7861 7.18667C98.9181 7.18667 99.9281 7.43266 100.816 7.92465C101.695 8.39929 102.42 9.11383 102.908 9.98496C103.407 10.8677 103.66 11.8748 103.667 13.0062C103.66 14.1251 103.407 15.1251 102.908 16.006C102.422 16.8754 101.701 17.59 100.827 18.0672C99.9317 18.5604 98.9181 18.8067 97.7861 18.8061ZM97.7861 16.2698C98.3782 16.2698 98.9036 16.1354 99.3624 15.8666C99.8201 15.5907 100.174 15.2065 100.423 14.7139C100.673 14.2166 100.797 13.6473 100.797 13.0062C100.797 12.3596 100.672 11.7871 100.423 11.2886C100.19 10.8087 99.8213 10.4078 99.3624 10.1359C98.9042 9.86063 98.3787 9.72268 97.7861 9.72209C97.2 9.72209 96.6778 9.86004 96.2196 10.1359C95.7646 10.4097 95.3995 10.8103 95.169 11.2886C94.9203 11.7865 94.7993 12.3591 94.8058 13.0062C94.8058 13.6467 94.9304 14.216 95.1796 14.7139C95.436 15.2053 95.7862 15.5895 96.2302 15.8666C96.6814 16.1348 97.2 16.2692 97.7861 16.2698Z" fill="#151517"/>
<path d="M106.647 7.42803H103.576L106.9 18.5626H109.589L111.774 11.4501L114.135 18.5626H116.782L120.117 7.42803H117.338L115.445 14.3594L113.356 7.42803H110.668L108.589 14.5112L106.647 7.42803Z" fill="#151517"/>
</svg>
