<svg width="118" height="22" viewBox="0 0 118 22" fill="none" xmlns="http://www.w3.org/2000/svg">
<path d="M115.655 6.96322C115.655 6.52712 115.343 6.23639 114.829 6.23639L113.82 6.25441L113.838 8.47333H114.389V7.70807H114.719L115.196 8.47213H115.839L115.27 7.61676C115.386 7.55222 115.484 7.45753 115.551 7.34257C115.619 7.22761 115.654 7.09659 115.654 6.96322M114.717 7.25515H114.369V6.69051H114.773C114.846 6.68279 114.918 6.703 114.976 6.747C115.034 6.79101 115.073 6.85547 115.085 6.92718V6.9452C115.083 6.99022 115.072 7.03441 115.052 7.07495C115.033 7.11549 115.005 7.15149 114.97 7.18067C114.936 7.21001 114.896 7.2318 114.852 7.24463C114.809 7.25746 114.762 7.26104 114.717 7.25515ZM33.2692 17.2169C32.3321 17.2169 31.6894 16.49 31.6894 15.4172V10.5277H35.5458V7.07134H31.699L31.663 3.10924H27.4017L27.4378 16.3074C27.4378 18.9793 29.2386 20.7969 31.8828 20.7969C33.2776 20.7969 34.5991 20.5975 35.6467 20.1242V16.7616C34.9024 17.1038 34.086 17.2596 33.268 17.2157M43.4412 6.8551C39.4743 6.8551 36.4264 9.90897 36.4264 13.9636C36.4264 17.9809 39.4743 20.7801 43.679 20.7801C46.0481 20.7801 48.2695 19.944 49.6282 18.2176L46.3605 16.7447C45.6997 17.3454 44.6894 17.5809 43.7896 17.5809C42.3203 17.5809 40.8522 16.836 40.6492 15.3079H50.3995C50.546 14.7625 50.6205 14.2002 50.6205 13.6356C50.6205 9.47287 47.5534 6.8551 43.4496 6.8551H43.4412ZM40.6504 12.6361C40.7789 10.8184 42.1004 9.98105 43.5505 9.98105C45.1843 9.98105 46.4157 10.8905 46.4157 12.4547V12.6349L40.6504 12.6361ZM23.3531 17.2169C22.4161 17.2169 21.7745 16.49 21.7745 15.4172V10.5277H25.6309V7.07134H21.7842L21.7469 3.10924H17.4869L17.5229 16.3074C17.5229 18.9793 19.3238 20.7969 21.968 20.7969C23.3627 20.7969 24.6842 20.5975 25.7318 20.1242V16.7616C24.9876 17.1038 24.1711 17.2596 23.3531 17.2157M8.38893 6.8551C4.73558 6.8551 0.897217 9.2362 0.897217 14.0357C0.897217 18.0362 3.6147 20.8354 7.04821 20.8354C9.01364 20.8354 10.5009 20.0533 11.474 18.6717L11.6026 20.5987H15.7245V14.199C15.7245 9.32751 12.0975 6.8551 8.38893 6.8551ZM8.38893 17.1448C6.53522 17.1448 5.1933 15.7812 5.1933 13.853C5.1933 11.9273 6.516 10.5637 8.38893 10.5637C10.1153 10.5637 11.5473 12.0534 11.5473 13.8543C11.5473 15.6551 10.1153 17.1448 8.38893 17.1448ZM114.626 5.23686C113.287 5.25488 112.424 6.10905 112.442 7.38249C112.461 8.65474 113.341 9.49089 114.682 9.47287C115.986 9.45485 116.867 8.59948 116.849 7.31041C116.83 6.01895 115.947 5.21884 114.626 5.23686ZM114.683 9.10886C113.637 9.12688 112.921 8.43609 112.921 7.38249C112.921 6.3277 113.6 5.61889 114.647 5.60087C115.692 5.58285 116.389 6.27364 116.41 7.34525C116.41 8.38203 115.712 9.09084 114.692 9.10886H114.683ZM93.806 7.09056L90.8326 15.6359L87.8208 7.09176H83.1931L88.7386 20.5807H92.8882L98.4337 7.09176L93.806 7.09056ZM104.842 6.8551C100.876 6.8551 97.8282 9.90897 97.8282 13.9636C97.8282 17.9809 100.876 20.7801 105.081 20.7801C107.448 20.7801 109.67 19.944 111.03 18.2176L107.761 16.7447C107.1 17.3454 106.09 17.5809 105.19 17.5809C103.722 17.5809 102.253 16.836 102.051 15.3079H111.801C111.948 14.7625 112.021 14.2002 112.021 13.6356C112.021 9.47287 108.955 6.8551 104.842 6.8551ZM107.816 12.6361H102.05C102.18 10.8184 103.501 9.98105 104.952 9.98105C106.586 9.98105 107.816 10.8905 107.816 12.4547V12.6361ZM79.9062 1.16423C78.3997 1.16423 77.262 2.16497 77.262 3.56456C77.262 4.96415 78.3997 6.00093 79.905 6.00093C81.4103 6.00093 82.5504 4.98217 82.5504 3.56456C82.5504 2.14695 81.4283 1.16423 79.9062 1.16423ZM60.5714 6.83708C59.7115 6.82384 58.8625 7.03062 58.105 7.43776C57.3482 7.84622 56.7114 8.4397 56.2561 9.16412L56.1096 7.09056H51.9973V20.5807H56.2561V13.5083C56.3486 11.8179 57.7254 10.5277 59.2319 10.5277C60.9198 10.5277 61.6911 11.7819 61.6911 13.3629V20.5627H65.9319V12.7081C65.9319 9.29146 63.8295 6.83708 60.5714 6.83708ZM73.5702 17.2169C72.6343 17.2169 71.9928 16.49 71.9928 15.4172V10.5277H75.848V7.07134H71.9916L71.9556 3.10924H67.6955L67.7316 16.3074C67.7316 18.9793 69.5324 20.7969 72.1766 20.7969C73.5702 20.7969 74.8929 20.5975 75.9393 20.1242V16.7616C75.1983 17.1021 74.3858 17.2579 73.5714 17.2157M77.7594 7.09056V20.5795H82.0554V7.09176C81.4172 7.51037 80.6706 7.73339 79.9074 7.73339C79.1442 7.73339 78.3976 7.51037 77.7594 7.09176" fill="#151517"/>
</svg>
