<svg width="71" height="22" viewBox="0 0 71 22" fill="none" xmlns="http://www.w3.org/2000/svg">
<path d="M11.5743 16.3183C10.9132 15.0458 10.1436 13.7098 8.63022 13.7098C8.31314 13.7098 8.05195 13.7571 7.78861 13.8775L7.28021 12.85C7.90577 12.3093 8.91398 11.8902 10.2135 11.8902C12.2321 11.8902 13.2714 12.8629 14.0916 14.1075C14.5806 13.0434 14.8117 11.6129 14.8117 9.83731C14.8117 5.40271 13.4273 3.15746 10.1877 3.15746C6.99644 3.15746 5.61956 5.43495 5.61956 9.83731C5.61956 14.2407 6.99967 16.5053 10.1554 16.5053C10.6252 16.5129 11.0927 16.4527 11.5452 16.328L11.5743 16.3183ZM12.3686 17.8671C11.6571 18.0575 10.9242 18.1558 10.1877 18.1594C5.93879 18.1594 1.78125 14.7685 1.78125 9.83409C1.78125 4.85241 5.91299 1.46144 10.1877 1.46144C14.5108 1.46144 18.6264 4.83307 18.6264 9.83409C18.6264 12.6178 17.3301 14.8802 15.4416 16.343C16.0521 17.2566 16.7131 17.8639 17.5526 17.8639C18.506 17.8639 18.8876 17.1266 18.9499 16.5473H20.2225C20.2956 17.3168 19.9108 20.5175 16.4079 20.5175C14.3108 20.5175 13.2295 19.2987 12.3621 17.8671H12.3686ZM21.363 13.6367V7.9317C21.363 7.2836 21.1254 6.99341 20.4096 6.99341H19.6152V5.48224H24.796V13.5314C24.796 14.8931 25.5334 15.494 26.6555 15.494C27.6089 15.494 28.4989 15.0866 28.9944 14.158V7.9317C28.9944 7.2836 28.7537 6.99341 28.041 6.99341H27.1994V5.48224H32.434V13.9452C32.434 14.7878 32.7457 15.1726 33.7055 15.1726H33.8732V16.7375L29.1922 17.4823V15.8701H29.0955C28.1904 16.9772 26.9157 17.7209 25.097 17.7209C23.0548 17.7209 21.4178 16.687 21.4178 13.6303L21.363 13.6367ZM40.6243 16.1808C42.4677 16.1808 43.1674 14.575 43.2051 11.3452C43.2373 8.1832 42.4677 6.6527 40.6254 6.6527C39.0131 6.6527 38.0028 8.17998 38.0028 11.3452C38.0028 14.5782 38.997 16.1818 40.6254 16.1818M40.6254 17.6973C37.288 17.6973 34.2838 15.1446 34.2838 11.3431C34.2838 7.61141 37.2181 5.13401 40.6254 5.13401C44.1757 5.13401 47.0208 7.65978 47.0208 11.3431C47.0208 15.1446 44.1757 17.6962 40.6254 17.6962M47.1283 17.4533V15.9357H47.6378C48.8868 15.9357 49.0039 15.5767 49.0039 14.4922V7.9317C49.0039 7.2836 48.6675 6.99341 47.8979 6.99341H47.224V5.48224H51.9759L52.2177 7.96395H52.3134C52.8401 6.18194 54.261 5.24471 55.5863 5.24471C56.6827 5.24471 57.5415 5.87024 57.5415 7.13635C57.5415 8.01768 57.1191 8.95598 55.9292 8.95598C54.8619 8.95598 54.6587 8.23479 53.7752 8.23479C52.9905 8.23479 52.3768 8.98178 52.3768 10.0791V14.5331C52.3768 15.6143 52.6401 15.9776 53.8709 15.9776H54.5695V17.4952H47.1229L47.1283 17.4533ZM62.948 15.6885C64.4635 15.6885 65.087 14.2569 65.087 12.808V10.8842C63.9799 12.0299 61.4099 12.0707 61.4099 14.1161C61.4099 15.1189 62.0054 15.6885 62.948 15.6885ZM65.159 15.6777C64.5323 16.8815 63.2522 17.6919 61.4561 17.6919C59.3709 17.6919 58.023 16.5849 58.023 14.6384C58.023 10.7154 63.4811 11.759 65.0794 9.16019V8.88074C65.0794 6.88163 64.2948 6.56994 63.4263 6.56994C60.9982 6.56994 62.1042 9.18599 59.8664 9.18599C58.7915 9.18599 58.3723 8.53681 58.3723 7.8081C58.3723 6.33241 60.1373 5.13616 63.4457 5.13616C66.5799 5.13616 68.5308 6.00137 68.5308 9.1215V14.1677C68.5308 14.9372 68.8103 15.3542 69.4853 15.3542C69.8023 15.3542 70.0119 15.2747 70.1968 15.1436L70.5977 16.1216C70.2699 16.63 69.3961 17.5199 67.7365 17.5199C66.294 17.5199 65.3847 16.846 65.2675 15.7487H65.1708L65.159 15.6777Z" fill="#151517"/>
</svg>
