<svg width="71" height="22" viewBox="0 0 71 22" fill="none" xmlns="http://www.w3.org/2000/svg">
<path fill-rule="evenodd" clip-rule="evenodd" d="M23.3642 7.60998H24.0038L26.0746 11.4837L28.1464 7.60998H28.786L26.0744 12.7044L23.3642 7.60998ZM22.3613 7.60998C22.8768 7.60998 23.1256 7.84215 23.3642 8.27857L26.0746 13.3534L28.7856 8.27805C29.0242 7.84215 29.2729 7.60945 29.7885 7.60945L26.0752 14.5638L22.362 7.60998H22.3613ZM35.9089 10.9999C35.9089 9.84715 34.9831 8.90737 33.8474 8.90737C32.711 8.90737 31.7852 9.84715 31.7852 10.9999C31.7852 12.1523 32.711 13.0918 33.8474 13.0918C34.9831 13.0918 35.9089 12.1521 35.9089 10.9993M31.2509 10.9993C31.2509 9.53723 32.4054 8.36554 33.8474 8.36554C35.2886 8.36554 36.4439 9.53736 36.4439 10.9993C36.4439 12.462 35.2886 13.6343 33.8474 13.6343C32.4054 13.6343 31.2509 12.462 31.2509 10.9993ZM36.787 10.9993C36.787 9.35315 35.4698 8.01635 33.8474 8.01635C32.2244 8.01635 30.9071 9.35354 30.9071 10.9993C30.9071 12.6462 32.2242 13.9826 33.8474 13.9826C35.4698 13.9828 36.787 12.6458 36.787 10.9993ZM30.3726 10.9993C30.3726 9.05311 31.9284 7.47412 33.8474 7.47412C35.7658 7.47412 37.322 9.05298 37.322 10.9993C37.322 12.9462 35.7656 14.5251 33.8474 14.5251C31.9284 14.5251 30.3726 12.9462 30.3726 10.9993ZM40.9986 11.4161L42.7262 8.22033C42.9268 7.85191 43.2032 7.60985 43.6997 7.60985L41.5329 11.5998V14.3892H40.9986V11.4161ZM38.9554 7.60998H39.595L40.8266 9.91462L42.0576 7.60998H42.6972L40.8266 11.0871L38.9554 7.60998ZM40.1205 14.3892V11.5999L37.9533 7.60985C38.4498 7.60985 38.7268 7.85164 38.9274 8.21967L40.6549 11.4156V14.3892H40.1205ZM47.331 9.29477L50.0414 14.3892H49.4019L47.331 10.5155L45.2603 14.3892H44.62L47.331 9.29477ZM47.331 7.43552L51.0442 14.3892C50.5293 14.3892 50.2805 14.157 50.0414 13.7206L47.331 8.64581L44.62 13.7213C44.3815 14.157 44.1332 14.3897 43.6178 14.3897L47.331 7.43552ZM53.0245 10.9999C53.0245 12.1523 53.9503 13.0918 55.0865 13.0918C55.5729 13.0918 56.0217 12.9174 56.3752 12.6363V11.7357H54.8095L55.1055 11.1932H56.9761V12.8007C56.4319 13.353 55.8595 13.6342 55.0864 13.6342C53.6444 13.6342 52.4899 12.4618 52.4899 10.9991C52.4899 9.53697 53.6444 8.36528 55.0864 8.36528C55.5824 8.36528 56.0216 8.50126 56.4227 8.7424L56.1645 9.21756C55.8404 9.01671 55.467 8.90953 55.0857 8.9079C53.9501 8.9079 53.0242 9.84702 53.0242 10.9993L53.0245 10.9999ZM57.8641 10.3025V13.1207C57.2246 13.973 56.2222 14.5251 55.0865 14.5251C53.1677 14.5251 51.6119 12.9462 51.6119 10.9993C51.6119 9.05311 53.1677 7.47412 55.0865 7.47412C55.7261 7.47412 56.3275 7.64806 56.8429 7.95837C56.6804 8.23021 56.4516 8.32641 56.0602 8.18106C55.7543 8.06484 55.4395 8.01635 55.0865 8.01635C53.4637 8.01635 52.1462 9.35354 52.1462 10.9993C52.1462 12.6462 53.4634 13.9826 55.0865 13.9826C55.9648 13.9826 56.7758 13.6049 57.32 12.9461V10.8441H55.2865L55.5825 10.3023L57.8641 10.3025ZM61.4814 12.9565H64.2114V13.4985H60.9469V11.1738H63.1709L62.8847 11.7163H61.4813V12.9562L61.4814 12.9565ZM60.9469 8.50087H64.2114V9.04336H61.4814V10.2826H63.6482L63.3523 10.8251H60.9471L60.9469 8.50087ZM60.0687 7.60945H64.2114C64.2114 7.97788 63.8965 8.15194 63.4762 8.15194H60.6033V13.847H63.4762C64.0015 13.847 64.2114 14.1088 64.2114 14.3894H60.0687V7.60945ZM66.4877 9.51773C66.4877 8.38451 67.4043 7.47399 68.5497 7.47399C69.1515 7.47399 69.7716 7.65821 70.2584 8.08435C70.1154 8.36501 69.886 8.41377 69.4952 8.22956C69.2074 8.08669 68.89 8.01374 68.5687 8.01662C67.6623 8.01662 67.0228 8.68508 67.0228 9.48847C67.0228 10.3994 67.7958 10.796 68.5884 11.1157C69.3418 11.4161 69.9535 11.7262 69.9535 12.4716C69.9535 13.1207 69.3139 13.6343 68.5688 13.6343C67.8056 13.6343 67.1085 13.2468 66.6218 12.7625L66.8701 12.288C67.2425 12.6945 67.9489 13.0918 68.5599 13.0918C69.0748 13.0918 69.419 12.8591 69.419 12.4813C69.419 12.1325 69.0938 11.9487 68.3214 11.6196C67.5289 11.2803 66.4886 10.8352 66.4886 9.51773M70.8312 12.4815C70.8312 13.6729 69.7048 14.5252 68.5306 14.5252C67.5479 14.5252 66.8031 14.1285 66.1824 13.5665C66.3354 13.3045 66.6693 13.2855 66.9652 13.4887C67.414 13.7986 67.91 13.9835 68.5687 13.9835C69.4663 13.9835 70.2969 13.3339 70.2969 12.472C70.2969 11.4937 69.5232 11.1355 68.6928 10.7963C67.9963 10.5157 67.3665 10.1768 67.3665 9.47938C67.3665 8.8689 67.8814 8.34617 68.5687 8.34617C68.9987 8.34617 69.4089 8.50113 69.8481 8.83003L69.5905 9.29517C69.2083 8.97563 68.8748 8.88866 68.5687 8.88866C68.187 8.88866 67.9008 9.1016 67.9008 9.45013C67.9008 9.75992 68.187 10.0022 68.9129 10.312C69.7714 10.6797 70.8312 11.0961 70.8312 12.4815Z" fill="#151517"/>
<path d="M20.4394 3.69898H19.5613C18.5932 3.71387 17.7451 4.24674 17.2872 5.02695L10.5775 16.9645L3.8606 5.02695C3.40283 4.24661 2.56228 3.71387 1.59404 3.69898H0.730957L10.5852 21.2264L20.4394 3.69898Z" fill="#151517"/>
<path fill-rule="evenodd" clip-rule="evenodd" d="M2.20105 0.787743H18.9524L10.5843 15.6741L2.20105 0.787743ZM14.7346 4.61431H14.7422V4.61405H14.667V4.62169C14.654 4.60851 14.658 4.60127 14.6641 4.58967L14.667 4.58414V4.56925C14.661 4.54818 14.6523 4.52795 14.6412 4.50903C14.6372 4.50164 14.6333 4.49417 14.6296 4.48663C14.6146 4.46423 14.5921 4.44169 14.5695 4.44169C14.5595 4.44157 14.5494 4.44029 14.5396 4.43787C14.5301 4.43603 14.5208 4.43418 14.5096 4.43418C14.4495 4.42667 14.397 4.42667 14.3445 4.44907C14.303 4.46615 14.2628 4.48624 14.2243 4.50916C14.1568 4.54671 14.0892 4.58427 14.0218 4.61418C14.0036 4.6263 13.9807 4.63342 13.9608 4.63974L13.9467 4.64422C13.9166 4.65173 13.9016 4.64422 13.8791 4.62182L13.8716 4.61418C13.8567 4.61418 13.8567 4.59178 13.8567 4.59178C13.8567 4.57663 13.849 4.56925 13.8341 4.5616C13.8341 4.55791 13.836 4.55607 13.8378 4.55422C13.8397 4.55238 13.8416 4.5504 13.8416 4.54671C13.8416 4.54671 13.8492 4.5392 13.8492 4.53169C13.8341 4.52418 13.8191 4.51667 13.8268 4.50165L13.8191 4.49414C13.8075 4.48834 13.8094 4.47806 13.8108 4.47016C13.8112 4.46787 13.8115 4.46585 13.8116 4.46409C13.8116 4.45658 13.8116 4.44907 13.8266 4.44169C13.8228 4.43787 13.8191 4.43603 13.8154 4.43418C13.8112 4.43235 13.8074 4.42981 13.8041 4.42667V4.41903C13.8078 4.41152 13.8098 4.40783 13.8098 4.40401C13.8098 4.40019 13.8078 4.3965 13.8041 4.38912V4.38148C13.8153 4.37028 13.814 4.35908 13.8125 4.34774C13.8121 4.34402 13.8117 4.34029 13.8116 4.33654C13.8116 4.32903 13.8191 4.32152 13.8191 4.32152V4.27659C13.8079 4.27263 13.8022 4.27092 13.8004 4.2671C13.7986 4.26328 13.8004 4.25774 13.8041 4.24641V4.23152C13.7912 4.21215 13.8005 4.20385 13.8082 4.19726L13.8116 4.19397C13.8038 4.18564 13.7986 4.17519 13.7967 4.16393V4.02899C13.7967 4.02148 13.8041 4.01397 13.8117 4.00646C13.8079 4.00264 13.8061 3.99895 13.8042 3.99526C13.8024 3.99108 13.7998 3.98724 13.7967 3.98393C13.8 3.98085 13.8038 3.97835 13.8079 3.97655C13.8121 3.97468 13.8159 3.97209 13.8192 3.96891C13.8042 3.96153 13.7967 3.94651 13.8042 3.93149C13.8042 3.92397 13.8116 3.92397 13.8192 3.92397C13.8192 3.90895 13.8173 3.89591 13.8154 3.88273C13.8131 3.8691 13.8119 3.85531 13.8117 3.84149H13.8341C13.8186 3.83095 13.821 3.82067 13.824 3.80775C13.8253 3.80209 13.8266 3.79589 13.8266 3.78891C13.8243 3.79136 13.8222 3.79411 13.8206 3.79708C13.8181 3.80103 13.8163 3.80393 13.8117 3.80393V3.76638C13.8117 3.75887 13.8117 3.74398 13.8192 3.73634L13.8341 3.72882V3.68376C13.8117 3.66874 13.8041 3.65372 13.8266 3.63132L13.8191 3.6238C13.8041 3.61616 13.7967 3.60865 13.7967 3.59376C13.7967 3.56438 13.7875 3.55344 13.7727 3.53578C13.7686 3.53086 13.7641 3.52515 13.7592 3.51865C13.7368 3.48874 13.6993 3.48123 13.6619 3.47385L13.6615 3.47359C13.6209 3.46676 13.5792 3.47198 13.5415 3.48861C13.4888 3.50363 13.4363 3.53367 13.3913 3.56372L13.3837 3.57123L13.3086 3.64634C13.303 3.65756 13.2954 3.66769 13.2862 3.67625C13.2824 3.68376 13.2768 3.68943 13.2712 3.69509C13.2653 3.70053 13.2602 3.70684 13.2562 3.7138C13.2296 3.73041 13.202 3.74541 13.1736 3.75874C13.1435 3.77376 13.1136 3.76638 13.0836 3.75874C13.0686 3.75123 13.0535 3.74371 13.0385 3.75123C13.0216 3.76256 13.0048 3.76111 12.9879 3.75979C12.9823 3.75926 12.9767 3.75891 12.971 3.75874H12.956C12.866 3.76638 12.7984 3.8038 12.7459 3.87891C12.7426 3.8855 12.7394 3.89187 12.7361 3.89802C12.7171 3.93504 12.6997 3.96904 12.6933 4.01397C12.6858 4.04388 12.6858 4.06628 12.6858 4.09633C12.6824 4.13734 12.6799 4.17841 12.6784 4.21953C12.6765 4.26104 12.6746 4.30255 12.6709 4.34392C12.6709 4.37396 12.6689 4.40401 12.6671 4.43405C12.6652 4.46396 12.6634 4.49401 12.6634 4.52405C12.6634 4.5616 12.6614 4.59718 12.6594 4.63276C12.6577 4.66834 12.6557 4.70405 12.6557 4.7416C12.6557 4.77164 12.6539 4.80353 12.652 4.83542C12.6498 4.86665 12.6486 4.89793 12.6482 4.92924C12.648 4.9418 12.6475 4.95428 12.6466 4.96666C12.6449 4.9917 12.6432 5.01673 12.6482 5.04177C12.6557 5.09421 12.6783 5.12426 12.7233 5.13177C12.7607 5.13915 12.7984 5.13915 12.8359 5.12426C12.8584 5.10924 12.8809 5.09435 12.9034 5.0867C12.9334 5.07181 12.9634 5.04928 12.9859 5.02675C12.9903 5.02253 12.9921 5.02069 12.9929 5.01845C12.9934 5.01704 12.9935 5.01484 12.9934 5.01186C13.001 4.98181 13.0085 4.95177 13.031 4.92924C13.046 4.91435 13.0534 4.8992 13.0385 4.88431C13.0339 4.88431 13.035 4.88141 13.0364 4.87745C13.0375 4.87486 13.0383 4.8721 13.0385 4.86928V4.85426C13.031 4.83937 13.0385 4.82435 13.046 4.80933C13.05 4.79747 13.0517 4.79194 13.0505 4.78719C13.0493 4.78271 13.0456 4.77902 13.0385 4.77178C13.0385 4.77178 13.0385 4.76426 13.046 4.76426C13.026 4.74424 13.0357 4.73014 13.0487 4.71156L13.0535 4.70431C13.0285 4.70431 13.0296 4.6885 13.0306 4.67453L13.031 4.66689V4.6068C13.031 4.59942 13.031 4.5844 13.0385 4.56938C13.0385 4.56701 13.0372 4.56477 13.0356 4.56226C13.0322 4.5566 13.0281 4.54974 13.0385 4.53933C13.0432 4.5352 13.0483 4.53142 13.0535 4.528C13.0592 4.52431 13.0649 4.52062 13.0686 4.5168C13.061 4.50178 13.061 4.4944 13.061 4.48676C13.061 4.46436 13.061 4.44934 13.046 4.44169V4.41929C13.0537 4.41547 13.0574 4.40981 13.0612 4.40414C13.0647 4.3979 13.0699 4.39276 13.0762 4.38925C13.0837 4.38174 13.0912 4.36672 13.0837 4.35921L13.0778 4.3484C13.0726 4.33957 13.0686 4.33259 13.0686 4.32165C13.0686 4.31072 13.0686 4.30505 13.0713 4.30123C13.0741 4.29728 13.0798 4.29543 13.0911 4.29161C13.0987 4.27672 13.0987 4.26157 13.0987 4.24668C13.0987 4.24668 13.0912 4.23917 13.0837 4.23917C13.0912 4.23917 13.0912 4.23152 13.0912 4.23152C13.0989 4.23152 13.1062 4.23152 13.1138 4.22401C13.1176 4.22032 13.1138 4.2165 13.1101 4.21281C13.1062 4.20912 13.1024 4.2053 13.1062 4.20161C13.1174 4.19041 13.1161 4.17513 13.1148 4.15865C13.1141 4.15297 13.1137 4.14725 13.1138 4.14152V4.12663C13.1363 4.11161 13.1363 4.08908 13.1363 4.06655L13.1663 4.0365C13.1663 4.01845 13.1808 4.00514 13.1944 3.99289C13.1977 3.9899 13.2009 3.98696 13.2039 3.98406C13.2131 3.97546 13.2207 3.96529 13.2263 3.95402C13.2263 3.94479 13.2318 3.9386 13.2379 3.93162C13.242 3.92722 13.2457 3.92217 13.2488 3.91646C13.2536 3.90711 13.2612 3.90355 13.2682 3.90039C13.2721 3.89854 13.2761 3.89683 13.2789 3.89393C13.3014 3.87153 13.3316 3.849 13.369 3.849H13.4139C13.4365 3.849 13.4516 3.85651 13.4666 3.87904C13.4815 3.89406 13.4815 3.90908 13.4815 3.93149V4.13415C13.4815 4.15655 13.4815 4.17908 13.474 4.20161C13.474 4.20723 13.4743 4.21286 13.4749 4.21848C13.4762 4.23534 13.4777 4.25221 13.4665 4.26908C13.4665 4.27303 13.4683 4.27659 13.4702 4.28041C13.472 4.28423 13.474 4.28792 13.474 4.29161V4.32165L13.4727 4.32811C13.4657 4.36276 13.4599 4.39136 13.474 4.4268V4.44169C13.471 4.45685 13.4705 4.47306 13.4698 4.48953C13.4689 4.51417 13.4679 4.53933 13.459 4.56187V4.65898C13.459 4.68889 13.459 4.71894 13.4665 4.74147C13.4815 4.78653 13.5041 4.82396 13.549 4.84649L13.564 4.86151C13.5499 4.86612 13.5387 4.8739 13.5284 4.88075C13.5226 4.88496 13.517 4.88852 13.5114 4.89142C13.4363 4.93649 13.3613 4.98155 13.2789 5.02648C13.2414 5.0452 13.2059 5.06588 13.1704 5.08644C13.1346 5.10713 13.0989 5.12781 13.061 5.14666C12.971 5.19172 12.881 5.24417 12.7909 5.29674C12.7787 5.30462 12.7662 5.31209 12.7535 5.31914C12.7403 5.32665 12.7271 5.33416 12.7159 5.34168C12.7083 5.3455 12.6988 5.35116 12.6893 5.35683C12.6801 5.36249 12.6709 5.36803 12.6634 5.37172C12.6557 5.37554 12.6462 5.38121 12.6369 5.38687C12.6277 5.39254 12.6183 5.39807 12.6108 5.40176C12.6033 5.40558 12.5937 5.41125 12.5843 5.41692C12.5751 5.42245 12.5657 5.42812 12.5582 5.43181C12.5507 5.43563 12.5411 5.44129 12.5317 5.44696C12.5225 5.45249 12.5131 5.45816 12.5058 5.46185C12.4877 5.45737 12.4805 5.46633 12.4728 5.47582C12.468 5.48303 12.4611 5.48863 12.4531 5.49189C12.4513 5.49365 12.4495 5.49571 12.4478 5.49809C12.4416 5.5056 12.4346 5.51442 12.4232 5.51442C12.3826 5.52786 12.35 5.54961 12.3176 5.57108C12.296 5.58558 12.2744 5.59994 12.2504 5.61193L12.1829 5.657L12.1153 5.70193C12.0931 5.70931 12.0708 5.7242 12.0485 5.73896L12.0479 5.73949C12.0105 5.76189 11.9732 5.78613 11.9357 5.81051C11.8981 5.83489 11.8604 5.8594 11.8227 5.88206C11.7913 5.89867 11.7611 5.91761 11.7326 5.93872C11.7206 5.94715 11.7081 5.95576 11.6951 5.96455C11.6913 5.96824 11.6876 5.97008 11.6839 5.97193C11.6797 5.97376 11.6759 5.9763 11.6726 5.97944V5.87442C11.6726 5.85953 11.6744 5.84648 11.6764 5.83331C11.6783 5.82013 11.6801 5.80695 11.6801 5.79206V5.747C11.6801 5.71695 11.6801 5.69455 11.6876 5.66451C11.6914 5.65759 11.6933 5.64984 11.6933 5.64198C11.6933 5.63411 11.6914 5.62637 11.6876 5.61944C11.6801 5.59704 11.6801 5.58189 11.6801 5.56687C11.6801 5.54895 11.6818 5.52931 11.6837 5.50889C11.6856 5.48649 11.6876 5.46277 11.6876 5.43932C11.6876 5.43181 11.6895 5.42429 11.6914 5.41692C11.6933 5.40927 11.6951 5.40176 11.6951 5.39425C11.6988 5.36078 11.7008 5.32705 11.7026 5.29358C11.7045 5.25958 11.7063 5.22572 11.7102 5.19172L11.7215 5.06048L11.7327 4.92911L11.732 4.91105C11.7308 4.88707 11.7297 4.86309 11.7477 4.83911C11.7427 4.8341 11.7443 4.82909 11.746 4.82409C11.7469 4.82168 11.7475 4.81915 11.7477 4.81658L11.7478 4.81592C11.7552 4.79352 11.7626 4.77138 11.7626 4.74911C11.7626 4.7416 11.7635 4.73409 11.7643 4.72658C11.767 4.71161 11.7664 4.69624 11.7626 4.68151C11.7589 4.67461 11.7569 4.66689 11.7569 4.65905C11.7569 4.65121 11.7589 4.64349 11.7626 4.63658C11.7701 4.62156 11.7777 4.60654 11.7701 4.59903C11.7655 4.58967 11.7696 4.58611 11.7734 4.58295C11.7756 4.58111 11.7777 4.57939 11.7777 4.57649C11.7777 4.5728 11.7758 4.56727 11.7739 4.5616C11.7719 4.55681 11.7706 4.55175 11.7701 4.54658C11.7777 4.52405 11.7777 4.49387 11.7777 4.47147V4.44907C11.7777 4.43418 11.7679 4.42259 11.7592 4.41218C11.7548 4.40733 11.751 4.40203 11.7477 4.39637C11.7327 4.37396 11.7029 4.36645 11.6729 4.35894H11.6726C11.6275 4.35143 11.5825 4.35143 11.5449 4.37396C11.5 4.39637 11.4698 4.4189 11.4474 4.46396C11.4324 4.49401 11.4324 4.53143 11.4324 4.56147C11.4324 4.57939 11.4307 4.59903 11.429 4.61958C11.427 4.64198 11.4249 4.66557 11.4249 4.68916C11.4249 4.70787 11.423 4.72855 11.421 4.74924C11.4189 4.76916 11.4177 4.78917 11.4174 4.8092C11.4137 4.8428 11.4118 4.8764 11.41 4.90987C11.408 4.94387 11.406 4.97773 11.4023 5.01173C11.4023 5.02675 11.4023 5.04928 11.3873 5.0643V5.11675C11.3873 5.1543 11.3799 5.19936 11.3724 5.24443C11.3654 5.28806 11.3592 5.33182 11.3537 5.37567C11.348 5.41889 11.3424 5.46198 11.3349 5.50705V5.50731C11.3199 5.56726 11.3048 5.62722 11.2598 5.67202C11.2148 5.71709 11.1623 5.74713 11.0947 5.74713C11.0571 5.74713 11.0346 5.73211 11.0195 5.70206C11.0045 5.67215 10.9896 5.64211 10.9896 5.61207V5.55962C10.9895 5.55207 10.9892 5.54456 10.9887 5.53709C10.9874 5.51469 10.9859 5.49202 10.9971 5.46949V5.40954C10.9971 5.39834 10.999 5.38516 11.0008 5.37198C11.0027 5.35881 11.0047 5.34563 11.0047 5.33443C11.0047 5.31954 11.0047 5.30452 11.0122 5.29701C11.0159 5.29008 11.0179 5.28234 11.0179 5.27447C11.0179 5.26661 11.0159 5.25886 11.0122 5.25194C11.0122 5.25194 11.0047 5.24456 11.0047 5.23705C10.9973 5.21452 11.0047 5.18461 11.0122 5.15456C11.0124 5.14755 11.014 5.14065 11.0169 5.13427C11.0184 5.13071 11.0197 5.12768 11.0197 5.12452L11.031 5.07946L11.0422 5.03439C11.0422 5.02688 11.0422 5.0195 11.0497 5.01199C11.0647 4.99564 11.0728 4.9741 11.0723 4.9519C11.0727 4.94793 11.074 4.9441 11.0761 4.9407C11.0781 4.9373 11.0794 4.93347 11.0798 4.9295C11.085 4.91883 11.0914 4.91 11.0973 4.90183C11.1078 4.88694 11.1173 4.87376 11.1173 4.85439V4.84688C11.1323 4.83186 11.1406 4.81684 11.1489 4.80182C11.153 4.79426 11.1575 4.7868 11.1624 4.77942C11.1648 4.77697 11.1668 4.77422 11.1684 4.77125C11.1708 4.7673 11.1727 4.7644 11.1773 4.7644C11.1811 4.76071 11.1851 4.75697 11.1894 4.7532C11.2024 4.74147 11.2167 4.72882 11.2223 4.71182C11.2374 4.6968 11.2524 4.68178 11.2524 4.65924C11.2524 4.64435 11.2561 4.63118 11.2599 4.61813C11.2636 4.60496 11.2674 4.59178 11.2674 4.57676C11.2674 4.55436 11.2599 4.52431 11.2374 4.50929C11.2148 4.49427 11.1923 4.49427 11.1698 4.49427C11.1605 4.49655 11.1513 4.49875 11.1421 4.50086C11.0916 4.51245 11.0427 4.52379 11.0047 4.56187C11.0047 4.56187 10.9973 4.56938 10.9896 4.56938C10.9521 4.59178 10.9222 4.61431 10.8921 4.65187L10.8674 4.68613C10.8357 4.72974 10.8015 4.77705 10.772 4.82448C10.7344 4.87693 10.7119 4.93701 10.6968 4.9971C10.6801 5.05363 10.6676 5.11133 10.6594 5.16972C10.6447 5.22607 10.6371 5.28408 10.637 5.34233C10.637 5.35722 10.635 5.37225 10.6331 5.38727C10.6311 5.40229 10.6294 5.41731 10.6294 5.43233C10.6294 5.44472 10.6271 5.45473 10.625 5.46396C10.6235 5.47134 10.6219 5.47806 10.6219 5.48478C10.6219 5.49611 10.6237 5.50915 10.6257 5.52233C10.6275 5.53551 10.6294 5.54868 10.6294 5.55988V5.78495C10.6294 5.84503 10.6369 5.90499 10.6594 5.95756C10.6895 6.02503 10.742 6.07009 10.8096 6.09263C10.8621 6.10765 10.9222 6.10765 10.9747 6.10014C10.9989 6.0915 11.0242 6.08644 11.0499 6.08512C11.0667 6.09078 11.0836 6.0838 11.1005 6.07668C11.1061 6.07431 11.1117 6.07211 11.1173 6.07009C11.1323 6.06021 11.1472 6.05692 11.1623 6.05349C11.1698 6.05178 11.1773 6.0502 11.1848 6.04769H11.1924C11.2111 6.03636 11.228 6.02332 11.2449 6.01014C11.2617 5.99696 11.2786 5.98379 11.2974 5.97258C11.305 5.96507 11.3123 5.96507 11.3199 5.96507C11.3274 5.96507 11.3275 5.97245 11.3275 5.9801V6.1676L11.1699 6.28013C11.0948 6.33258 11.0273 6.38515 10.9597 6.43773C10.9401 6.4531 10.9202 6.46803 10.8999 6.48253C10.8792 6.49755 10.8585 6.51257 10.8397 6.52773C10.817 6.54288 10.7962 6.55803 10.7755 6.57306C10.7548 6.58808 10.7344 6.60284 10.712 6.61786C10.6783 6.64408 10.6444 6.66846 10.6107 6.69283C10.5769 6.71721 10.5432 6.74159 10.5093 6.76794C10.4648 6.8051 10.4203 6.83475 10.3757 6.86453L10.3744 6.86545C10.3562 6.88491 10.3361 6.90248 10.3143 6.91789L10.2579 6.96309L10.2018 7.00789C10.1793 7.03056 10.1492 7.05296 10.1192 7.07549C10.0934 7.09446 10.0685 7.11446 10.0443 7.13545C10.0201 7.15648 9.99497 7.17653 9.96909 7.19553C9.9603 7.20212 9.95108 7.20871 9.94142 7.2153C9.91796 7.23177 9.89279 7.24929 9.87158 7.27064C9.85313 7.28596 9.83554 7.30228 9.81887 7.31953C9.80187 7.33639 9.78514 7.35313 9.76643 7.36828L9.60883 7.50321L9.45124 7.63827L9.29364 7.77334C9.23369 7.83329 9.1736 7.89325 9.106 7.95333L8.99347 8.06587L8.99242 8.06692C8.92522 8.13412 8.85801 8.20132 8.79832 8.27604L8.75326 8.3435C8.74997 8.35067 8.74749 8.35818 8.74588 8.3659C8.7439 8.37341 8.74206 8.38092 8.73824 8.38844C8.73446 8.40317 8.73392 8.41854 8.73665 8.4335C8.73753 8.44105 8.73806 8.44852 8.73824 8.4559C8.74579 8.53101 8.78334 8.58358 8.8509 8.61363C8.89583 8.62852 8.9409 8.62852 8.98596 8.62852C9.02338 8.62852 9.04591 8.61363 9.06845 8.5911L9.13591 8.5235C9.15462 8.50492 9.17518 8.48621 9.19574 8.46763C9.21642 8.44865 9.23724 8.42981 9.25609 8.41097L9.27111 8.39608L9.30853 8.35852L9.33093 8.33612C9.36097 8.29857 9.39866 8.26101 9.43608 8.22346C9.46244 8.19711 9.48695 8.17075 9.51159 8.1444C9.53583 8.11831 9.56008 8.09209 9.58617 8.066L9.62372 8.02844C9.62644 8.026 9.62925 8.02367 9.63215 8.02146C9.63967 8.01566 9.64849 8.00894 9.65376 7.9984C9.658 7.99379 9.66175 7.98875 9.66497 7.98338C9.66838 7.97811 9.67217 7.97309 9.6763 7.96836C9.6875 7.96085 9.69685 7.95149 9.70621 7.94213C9.71556 7.93278 9.72492 7.92342 9.73625 7.91578L9.82638 7.82578C9.85643 7.80338 9.88634 7.78085 9.91638 7.75067C9.9318 7.74053 9.94366 7.72669 9.95446 7.71431C9.95938 7.70842 9.96421 7.70306 9.96896 7.69823C9.97923 7.68281 9.99307 7.67095 10.0055 7.66015C10.0113 7.65523 10.0167 7.6504 10.0215 7.64565L10.0439 7.62325C10.0891 7.59097 10.1342 7.55315 10.1746 7.51942L10.1941 7.50308C10.2281 7.47291 10.262 7.44471 10.296 7.41638C10.3296 7.38831 10.3632 7.36037 10.3968 7.33059C10.4604 7.27631 10.5254 7.22375 10.5918 7.173C10.6445 7.12793 10.6895 7.09038 10.7345 7.05296C10.7721 7.0154 10.8172 6.97785 10.8621 6.94781C10.8921 6.93292 10.9222 6.91038 10.9447 6.88785C10.9711 6.86519 10.9993 6.8445 11.0275 6.82381C11.0555 6.80326 11.0836 6.7827 11.1098 6.7603C11.1623 6.71523 11.2148 6.67768 11.2674 6.64013L11.2678 6.63999C11.2977 6.62497 11.3275 6.61008 11.3574 6.58768V7.46526C11.3575 7.4693 11.3578 7.47312 11.3583 7.47673C11.3596 7.48753 11.361 7.49728 11.3499 7.50282V7.51784C11.3549 7.5376 11.3533 7.56066 11.3516 7.58478C11.3506 7.59734 11.3501 7.61008 11.3499 7.62299V7.78796C11.3574 7.83303 11.3574 7.88547 11.3499 7.93054C11.3424 7.99049 11.3424 8.05809 11.3424 8.11805V8.35075C11.3424 8.37803 11.3403 8.40319 11.3384 8.42757C11.3366 8.44997 11.3349 8.47158 11.3349 8.49332C11.3349 8.56053 11.3498 8.6276 11.3647 8.6948L11.3649 8.69585C11.3873 8.77847 11.44 8.8234 11.5225 8.84594C11.5262 8.84594 11.528 8.84778 11.5299 8.84963C11.5317 8.85147 11.5337 8.85358 11.5374 8.85358H11.6426L11.6431 8.85318C11.6729 8.83829 11.7028 8.82327 11.7327 8.80087C11.7476 8.78598 11.7626 8.77083 11.7701 8.75594C11.7734 8.74935 11.7751 8.74276 11.7768 8.73696C11.7789 8.72932 11.7808 8.7226 11.7851 8.71852C11.7899 8.71439 11.7949 8.7106 11.8001 8.70718C11.8054 8.70377 11.8104 8.69998 11.8152 8.69585L11.8075 8.68834C11.7851 8.68083 11.7775 8.67332 11.8 8.6583L11.8075 8.65079C11.8013 8.63234 11.8106 8.62391 11.8224 8.6131L11.8301 8.60585C11.8256 8.60176 11.8203 8.59874 11.8145 8.59703C11.8096 8.59525 11.8047 8.59318 11.8 8.59083C11.8088 8.57766 11.7995 8.57212 11.7903 8.56672C11.7838 8.56316 11.7775 8.55947 11.7775 8.55341C11.7796 8.55139 11.7816 8.54972 11.7834 8.5484C11.7886 8.54471 11.7926 8.54181 11.7926 8.53088C11.7942 8.52751 11.7956 8.52408 11.7969 8.5206C11.8012 8.5094 11.8052 8.49912 11.8225 8.49332C11.8193 8.49024 11.8155 8.48775 11.8113 8.48594C11.8072 8.48411 11.8033 8.48157 11.8 8.47843C11.8123 8.46618 11.8046 8.46064 11.7963 8.45445C11.7892 8.44918 11.7816 8.44365 11.7851 8.43337L11.7701 8.44839C11.7677 8.44598 11.7649 8.4439 11.7619 8.4422C11.758 8.43983 11.7551 8.43798 11.7551 8.43337V8.3883C11.7589 8.3883 11.7626 8.38646 11.7664 8.38461C11.7702 8.38277 11.7738 8.38079 11.7776 8.38079L11.7626 8.36577C11.7664 8.36208 11.7701 8.35655 11.7739 8.35088C11.7773 8.34561 11.781 8.34059 11.7851 8.33586C11.7888 8.3317 11.7908 8.32636 11.7908 8.32084C11.7908 8.31531 11.7888 8.30997 11.7851 8.30582C11.7758 8.2871 11.7707 8.26661 11.7701 8.24573C11.77 8.23932 11.7688 8.23298 11.7664 8.22702C11.7646 8.22135 11.7626 8.21582 11.7626 8.20831C11.7593 8.21139 11.7555 8.21388 11.7514 8.21569C11.7473 8.21753 11.7435 8.22007 11.7402 8.2232C11.7323 8.21497 11.7271 8.20454 11.7252 8.19329C11.7289 8.18499 11.7308 8.17601 11.7308 8.16693C11.7308 8.15785 11.7289 8.14887 11.7252 8.14058C11.7291 8.14488 11.7344 8.1476 11.7402 8.14822C11.7485 8.1357 11.7452 8.12318 11.7419 8.11067C11.7393 8.10078 11.7368 8.09077 11.7402 8.08075L11.7326 8.07311C11.7101 8.0656 11.725 8.05071 11.7326 8.0432C11.725 8.03556 11.7177 8.03556 11.7102 8.03556C11.7128 8.02941 11.715 8.02307 11.7167 8.01658C11.719 8.00894 11.7208 8.00235 11.725 7.99814L11.6876 7.96058C11.7133 7.9478 11.7061 7.93489 11.6986 7.92197L11.6951 7.91565C11.6988 7.91565 11.7007 7.9138 11.7025 7.91183C11.7045 7.90998 11.7063 7.90814 11.7102 7.90814C11.7102 7.90063 11.7102 7.8856 11.7025 7.87809C11.7025 7.87809 11.6951 7.88561 11.6876 7.88561V7.84054C11.6916 7.84017 11.6954 7.83891 11.6988 7.83685C11.7023 7.83473 11.7061 7.83342 11.7102 7.83303C11.7096 7.82339 11.7064 7.8141 11.7009 7.80615L11.6951 7.79561C11.6876 7.78059 11.6951 7.76556 11.7102 7.75805C11.7252 7.75054 11.7252 7.74303 11.7177 7.72801C11.7136 7.71945 11.7099 7.71075 11.7065 7.70192C11.703 7.693 11.6992 7.68421 11.6951 7.67557C11.6979 7.67012 11.7007 7.66485 11.7037 7.65975C11.7169 7.63683 11.7285 7.61627 11.7102 7.58544H11.7177C11.7102 7.57041 11.7026 7.56304 11.6951 7.55539C11.7026 7.54788 11.7102 7.54788 11.7175 7.54788C11.7231 7.53181 11.713 7.52719 11.7041 7.52311C11.7004 7.5217 11.6974 7.51995 11.6951 7.51784C11.6976 7.51033 11.6967 7.50189 11.6959 7.49372C11.6942 7.47778 11.6928 7.46289 11.7177 7.45788C11.7102 7.43548 11.7102 7.41282 11.7102 7.39042C11.7102 7.3754 11.7102 7.35286 11.7177 7.33033V7.32282C11.7067 7.31742 11.7076 7.31202 11.709 7.30371C11.7096 7.30055 11.71 7.29691 11.7102 7.29278V7.24033C11.7138 7.2178 11.7138 7.19342 11.7138 7.16905C11.7138 7.14467 11.7138 7.12029 11.7177 7.09776C11.7177 7.09025 11.7177 7.06772 11.7102 7.06021C11.7025 7.05269 11.7025 7.0378 11.7102 7.0378C11.7217 7.03187 11.7199 7.0216 11.7185 7.01369L11.7177 7.00763V6.97759C11.7138 6.95783 11.7132 6.93758 11.7159 6.91763C11.7167 6.90762 11.7177 6.8976 11.7177 6.88759C11.7177 6.87757 11.7192 6.86756 11.721 6.85754C11.7242 6.83765 11.7275 6.81762 11.7177 6.79759V6.79008C11.7214 6.78316 11.7234 6.77541 11.7234 6.76755C11.7234 6.75968 11.7214 6.75194 11.7177 6.74501C11.7102 6.7375 11.7102 6.72999 11.7102 6.72261C11.725 6.72999 11.7326 6.7151 11.725 6.70759C11.7073 6.68967 11.7129 6.67663 11.7198 6.66081C11.7216 6.6566 11.7234 6.6522 11.725 6.64764C11.7326 6.6251 11.7326 6.60995 11.7175 6.59493C11.7189 6.59098 11.7204 6.58702 11.722 6.58307C11.7293 6.56475 11.7361 6.54736 11.7175 6.53497C11.7202 6.52935 11.7222 6.52461 11.7236 6.52074C11.7253 6.51485 11.7284 6.50943 11.7326 6.50493C11.725 6.49742 11.725 6.49004 11.725 6.48253V6.42982C11.7326 6.41493 11.7326 6.39991 11.7326 6.38502C11.725 6.36236 11.7401 6.34747 11.755 6.33996C11.7615 6.33337 11.7681 6.32955 11.7742 6.32625C11.7817 6.32204 11.7883 6.31835 11.7926 6.30991C11.8012 6.294 11.8142 6.28095 11.8301 6.27236C11.8525 6.25734 11.877 6.24047 11.9012 6.2236C11.9257 6.20674 11.9501 6.18987 11.9726 6.17485C11.9797 6.16958 11.9864 6.16431 11.9929 6.15904C12.014 6.14217 12.034 6.12636 12.0628 6.1149C12.0713 6.10566 12.0814 6.09803 12.0927 6.09236C12.0952 6.08965 12.0975 6.08684 12.0998 6.08393C12.1056 6.07498 12.1134 6.06756 12.1227 6.06232C12.1566 6.03966 12.1924 6.01897 12.2281 5.99828C12.2637 5.97772 12.2993 5.95717 12.3329 5.93477C12.3592 5.91975 12.3836 5.90472 12.408 5.8897C12.4324 5.87468 12.4568 5.85966 12.4831 5.84464L12.6406 5.75464C12.6706 5.73593 12.7025 5.71722 12.7345 5.69837C12.7664 5.67966 12.7983 5.66082 12.8282 5.64211C12.8584 5.62709 12.8866 5.61022 12.9148 5.59335C12.9428 5.57591 12.9716 5.55964 13.001 5.5446C13.0195 5.5334 13.0401 5.5222 13.0606 5.511C13.0813 5.49967 13.1022 5.48833 13.121 5.477C13.1322 5.46962 13.1454 5.46383 13.1586 5.45829C13.1717 5.45276 13.1849 5.44709 13.1961 5.43958C13.2221 5.42482 13.2462 5.41191 13.2703 5.39873C13.2949 5.38555 13.3196 5.37238 13.3462 5.35709C13.4063 5.32336 13.4682 5.29147 13.53 5.25958C13.5919 5.2277 13.6539 5.19568 13.714 5.16207L13.7441 5.14613C13.7675 5.13361 13.7933 5.11978 13.8191 5.10937C13.8367 5.10137 13.8546 5.09312 13.873 5.08459C13.9401 5.05337 14.011 5.02055 14.0817 4.99684C14.1342 4.97312 14.1898 4.9552 14.2445 4.9378C14.276 4.92797 14.3068 4.91764 14.337 4.90684C14.4119 4.88444 14.4795 4.86191 14.547 4.82435C14.5628 4.81908 14.5749 4.81025 14.5884 4.80024C14.5941 4.79584 14.6003 4.79141 14.6071 4.78693L14.6074 4.78666C14.6371 4.76426 14.6672 4.74186 14.6896 4.70444C14.6896 4.70062 14.6933 4.69693 14.6971 4.69311C14.7008 4.68942 14.7046 4.6856 14.7046 4.68191C14.7046 4.6632 14.7132 4.65042 14.7216 4.63803C14.7269 4.63072 14.7313 4.62275 14.7346 4.61431ZM9.57853 2.09331C9.6311 2.04073 9.68368 2.00331 9.75865 1.98078H9.75892V1.96576H9.81136C9.82269 1.96958 9.83587 1.97327 9.84891 1.97709C9.86209 1.98078 9.87527 1.9846 9.88647 1.98829C9.9766 2.01833 10.0367 2.07829 10.0591 2.16842C10.0742 2.22086 10.0742 2.26593 10.0667 2.3185C10.0593 2.35566 10.0445 2.38531 10.0297 2.41509L10.0292 2.41601C10.0222 2.42637 10.0147 2.4364 10.0068 2.44605C9.99875 2.45566 9.99119 2.46564 9.98411 2.47597C9.9766 2.47597 9.9766 2.48348 9.9766 2.49099C9.97429 2.49643 9.97236 2.50202 9.9708 2.50772C9.96737 2.51932 9.96408 2.53105 9.95407 2.53605C9.94945 2.54029 9.94442 2.54404 9.93904 2.54725C9.93351 2.55107 9.92784 2.55476 9.92402 2.55845L9.91651 2.5661C9.91651 2.57361 9.91651 2.58099 9.909 2.5885C9.909 2.59232 9.90716 2.59232 9.90439 2.59232C9.90162 2.59232 9.8978 2.59232 9.89398 2.59614C9.87909 2.60352 9.86394 2.61854 9.84905 2.63356C9.8364 2.6485 9.82331 2.66299 9.80978 2.67705C9.78316 2.70524 9.75641 2.73371 9.73638 2.76862C9.72919 2.78065 9.72172 2.79251 9.71398 2.8042C9.69896 2.82766 9.68394 2.85111 9.66892 2.88116C9.66442 2.89215 9.65809 2.90231 9.65021 2.9112C9.64229 2.92004 9.63592 2.93015 9.63136 2.94111L9.5751 3.06497L9.51883 3.1887C9.50711 3.21903 9.49459 3.24904 9.48128 3.2787C9.4681 3.30875 9.45493 3.33879 9.44373 3.3687C9.43621 3.38385 9.43621 3.39874 9.43621 3.42141C9.43621 3.42879 9.43621 3.44381 9.4287 3.45132C9.425 3.46193 9.41995 3.47203 9.41368 3.48136C9.40754 3.49072 9.4025 3.50076 9.39866 3.51127C9.39558 3.51456 9.39309 3.51835 9.39128 3.52247C9.38941 3.52667 9.38682 3.5305 9.38364 3.53381C9.35373 3.57887 9.33871 3.6238 9.32368 3.67638L9.31248 3.69878L9.30115 3.72145C9.2939 3.73594 9.28666 3.75755 9.27928 3.77942L9.27862 3.7814C9.2636 3.81131 9.25622 3.83384 9.24858 3.86389C9.24594 3.87232 9.24199 3.88168 9.23803 3.89156C9.23105 3.90869 9.22328 3.92753 9.21853 3.94637C9.21453 3.95881 9.2108 3.97133 9.20733 3.98393C9.20351 3.99711 9.19982 4.01028 9.196 4.02148C9.19563 4.02545 9.19437 4.02928 9.19231 4.03268C9.1902 4.03608 9.1889 4.03991 9.18849 4.04388V4.08157L9.18783 4.08355C9.18168 4.10328 9.17438 4.12264 9.16596 4.14152C9.15845 4.15655 9.15845 4.16406 9.16596 4.17908V4.19397L9.14356 4.23903C9.14356 4.23903 9.13591 4.24641 9.13591 4.25406L9.12471 4.29899L9.11351 4.34405C9.11351 4.35908 9.11351 4.36645 9.10587 4.3741L9.09467 4.3965L9.08347 4.41903C9.07583 4.43418 9.07583 4.45658 9.07583 4.47174C9.07252 4.48647 9.07005 4.50139 9.06845 4.51641C9.06682 4.53161 9.06431 4.5467 9.06094 4.5616V4.62169C9.05918 4.62696 9.05769 4.63289 9.05646 4.63948C9.05185 4.66056 9.04644 4.6852 9.02351 4.69667L9.02299 4.69719C9.01561 4.70457 9.00849 4.71182 9.00849 4.7192C9.00454 4.7304 9.00098 4.74358 8.99716 4.75675C8.99334 4.76993 8.98965 4.78311 8.98596 4.79431V4.80182C8.9654 4.82224 8.95895 4.84622 8.9521 4.87126C8.94893 4.88299 8.94564 4.89498 8.9409 4.90684C8.91797 4.94703 8.90808 4.99157 8.89807 5.03703C8.89508 5.05123 8.89183 5.06537 8.88832 5.07946C8.86592 5.15456 8.85077 5.22203 8.83574 5.29714C8.8289 5.34512 8.81896 5.39262 8.80596 5.43932C8.80333 5.44924 8.80078 5.45934 8.79832 5.46962V5.51469C8.79815 5.51732 8.79758 5.51983 8.79661 5.5222C8.7949 5.52721 8.79331 5.53221 8.79832 5.53722V5.55224C8.79331 5.55725 8.7949 5.56212 8.79661 5.56713C8.79754 5.56954 8.79812 5.57207 8.79832 5.57464C8.79647 5.58595 8.79123 5.59642 8.7833 5.60469C8.76828 5.61233 8.76828 5.61971 8.76828 5.62722C8.76828 5.63605 8.76564 5.64224 8.76367 5.64738C8.76206 5.65045 8.76107 5.65381 8.76077 5.65726C8.76068 5.65963 8.76024 5.66244 8.75945 5.6657C8.75761 5.67321 8.7555 5.68203 8.76077 5.68731C8.76829 5.71178 8.76829 5.73794 8.76077 5.76241C8.76077 5.77335 8.75681 5.78033 8.75154 5.78929L8.74588 5.79984C8.74588 5.80366 8.7439 5.80919 8.74192 5.81486C8.73996 5.81966 8.73872 5.82472 8.73824 5.82988C8.74364 5.85123 8.73758 5.86888 8.73086 5.88812C8.72796 5.89608 8.72546 5.90417 8.72335 5.91237C8.71583 5.92739 8.71583 5.93477 8.71583 5.94992V6.03241C8.71583 6.03992 8.71583 6.0473 8.70819 6.05481C8.70068 6.06232 8.70068 6.06996 8.70068 6.08485C8.70068 6.09987 8.70068 6.10738 8.69317 6.12241C8.69317 6.12992 8.69133 6.13927 8.68935 6.14876C8.68724 6.15735 8.68601 6.16614 8.68566 6.17498C8.68346 6.18526 8.681 6.19602 8.67828 6.20727C8.67103 6.23718 8.66313 6.26986 8.66313 6.30253C8.66313 6.31756 8.66313 6.32493 8.67815 6.32493L8.68566 6.33258C8.68566 6.36262 8.68566 6.39253 8.67064 6.42258V6.4376C8.67027 6.45147 8.66494 6.46474 8.65562 6.47502C8.64068 6.49136 8.63265 6.51285 8.63322 6.53497C8.63322 6.55 8.63124 6.56686 8.62939 6.58373C8.62755 6.60073 8.62557 6.61759 8.62557 6.63248C8.61806 6.6475 8.61806 6.66266 8.61806 6.67755L8.62557 6.69257C8.6481 6.72261 8.6481 6.73012 8.61068 6.74515C8.61688 6.76992 8.60765 6.79482 8.60014 6.81538L8.59566 6.82763C8.5922 6.84363 8.58974 6.85982 8.58828 6.87612C8.58631 6.89312 8.58446 6.91012 8.58064 6.92514C8.57695 6.95545 8.57313 6.98365 8.56931 7.01211C8.56562 7.04004 8.56193 7.06798 8.55824 7.09776L8.53571 7.27789L8.51317 7.45802C8.50917 7.49438 8.50416 7.53063 8.49815 7.56672C8.49249 7.6023 8.48682 7.63801 8.48313 7.67557V7.67583C8.47562 7.73578 8.46798 7.79574 8.45309 7.85556L8.4519 7.86479C8.44479 7.9225 8.43688 7.98628 8.41553 8.0432C8.39313 8.10316 8.35545 8.14071 8.29549 8.15573C8.25043 8.16324 8.20536 8.17075 8.16043 8.13333C8.1379 8.11067 8.11536 8.08827 8.10785 8.05071L8.08545 7.94978L8.06279 7.84818C8.04777 7.7881 8.04039 7.73552 8.03275 7.67557C8.01957 7.62905 8.01206 7.57674 8.00534 7.52891L8.0027 7.51046C8.0027 7.50677 8.00086 7.50493 7.99901 7.50308C7.99717 7.50124 7.99519 7.49926 7.99519 7.49557C7.98768 7.48806 7.98768 7.48055 7.98768 7.48055C7.99269 7.47053 7.99097 7.46052 7.98939 7.4505C7.98853 7.44553 7.98796 7.44052 7.98768 7.43548C7.97891 7.40622 7.97334 7.37609 7.97108 7.34562C7.96953 7.33054 7.96756 7.31551 7.96515 7.30055C7.96515 7.27802 7.95764 7.27051 7.9351 7.27802C7.96502 7.24798 7.95764 7.23295 7.92759 7.21042V7.20291C7.94261 7.15798 7.9351 7.12029 7.92759 7.083C7.92074 7.04874 7.91547 7.01606 7.91046 6.98431C7.90472 6.94696 7.89791 6.90979 7.89004 6.87283C7.88582 6.83772 7.88081 6.8027 7.87502 6.76781C7.86948 6.7321 7.86382 6.69652 7.86 6.66266C7.856 6.62506 7.85099 6.58758 7.84497 6.55026C7.83944 6.51271 7.83377 6.47515 7.82995 6.4376C7.82127 6.35205 7.80878 6.26693 7.79253 6.18249C7.79253 6.17129 7.79068 6.16009 7.78871 6.14876C7.78686 6.13756 7.78502 6.12636 7.78502 6.11503C7.78502 6.09263 7.78502 6.06996 7.77 6.05507C7.76249 6.05507 7.76249 6.04005 7.76249 6.03254C7.76947 5.99051 7.76341 5.95519 7.75656 5.91408L7.75498 5.90486C7.75115 5.87494 7.74549 5.84292 7.73995 5.81117C7.7342 5.78002 7.72919 5.74874 7.72493 5.71735L7.72467 5.71682C7.71729 5.69442 7.70991 5.67202 7.70991 5.64224C7.70803 5.63098 7.70279 5.62056 7.69489 5.61233C7.68 5.60469 7.68 5.59718 7.68 5.58229C7.67982 5.57447 7.67921 5.56735 7.67815 5.56094C7.67657 5.54842 7.67499 5.53696 7.68 5.5222V5.47727C7.67618 5.47727 7.67249 5.47911 7.66867 5.48096C7.66527 5.48306 7.66144 5.48437 7.65747 5.48478V5.46975C7.66485 5.45473 7.65747 5.44722 7.64996 5.43971C7.64244 5.4322 7.6348 5.42469 7.61991 5.42469C7.61599 5.42488 7.61228 5.42653 7.6095 5.4293C7.60673 5.43208 7.60508 5.43579 7.60489 5.43971C7.60489 5.45473 7.59738 5.47727 7.58987 5.49229C7.58732 5.49492 7.58534 5.49807 7.58407 5.50151C7.58065 5.5081 7.57748 5.51469 7.56734 5.51469C7.56734 5.51469 7.55983 5.52971 7.55983 5.53735C7.55983 5.53735 7.55245 5.54486 7.54494 5.54486C7.54494 5.54926 7.54511 5.55387 7.54546 5.5587C7.54678 5.57846 7.5481 5.60034 7.52991 5.61233C7.52991 5.62195 7.52451 5.63012 7.51885 5.63868C7.5112 5.65028 7.50303 5.66253 7.50738 5.67993V5.68744C7.4971 5.69771 7.49381 5.71168 7.49038 5.72657C7.48882 5.73358 7.48698 5.74053 7.48485 5.74739C7.4827 5.75255 7.48201 5.75821 7.48287 5.76373C7.4834 5.77164 7.4838 5.77744 7.46996 5.77744V5.82237C7.46759 5.82702 7.46478 5.83212 7.46153 5.83765C7.45402 5.85083 7.44519 5.86664 7.43992 5.88246C7.43517 5.88246 7.43636 5.88522 7.43781 5.88918C7.43873 5.89168 7.43992 5.89445 7.43992 5.89734C7.42134 5.90354 7.41804 5.91487 7.4133 5.93108L7.40987 5.94241C7.40632 5.94682 7.40376 5.95194 7.40236 5.95743C7.40096 5.96292 7.3984 5.96804 7.39485 5.97245C7.37904 5.99354 7.37061 6.01831 7.36191 6.04414C7.35822 6.05512 7.35418 6.06623 7.34979 6.07747C7.34979 6.08129 7.34794 6.08314 7.3461 6.08498C7.34425 6.08683 7.34214 6.0888 7.34214 6.09249C7.33859 6.09987 7.33674 6.10554 7.3349 6.11107C7.33292 6.11674 7.33108 6.12241 7.32725 6.13005L7.31223 6.14494C7.28219 6.17498 7.25215 6.19751 7.20721 6.19751C7.20205 6.19765 7.1969 6.19809 7.1918 6.19883C7.177 6.20186 7.16171 6.20141 7.14713 6.19751C7.07966 6.18249 7.04211 6.13743 7.02722 6.06996V6.04743C7.04211 6.00988 7.05713 5.96481 7.07202 5.91988C7.07729 5.90477 7.08291 5.8897 7.08888 5.87468C7.10048 5.84464 7.11208 5.81473 7.11708 5.78481C7.12473 5.74726 7.13224 5.71722 7.14713 5.68731L7.14739 5.68691C7.16228 5.64949 7.17717 5.61207 7.18468 5.56713C7.18493 5.55324 7.19027 5.53992 7.1997 5.52971C7.21467 5.51334 7.2227 5.4918 7.2221 5.46962C7.22592 5.46224 7.22777 5.45473 7.22961 5.44722C7.23143 5.4395 7.23395 5.43196 7.23712 5.42469C7.25953 5.39491 7.26704 5.35749 7.27455 5.32033V5.31967C7.2785 5.30847 7.28219 5.29898 7.28588 5.28963C7.28996 5.27977 7.29374 5.2698 7.29721 5.25972C7.30275 5.24021 7.31039 5.22071 7.31816 5.20095C7.33134 5.16721 7.34504 5.13243 7.34979 5.09461L7.36099 5.06088L7.37219 5.02714C7.37219 5.00461 7.3797 4.98946 7.38721 4.97444C7.38753 4.95594 7.39271 4.93785 7.40223 4.92199L7.40803 4.91119C7.41365 4.90341 7.41686 4.89416 7.41725 4.88457C7.44716 4.80946 7.4697 4.742 7.49236 4.66689C7.49974 4.62933 7.50725 4.59942 7.52227 4.56938C7.53729 4.52418 7.55983 4.48676 7.60476 4.46423C7.67987 4.41929 7.79978 4.43418 7.85248 4.50929C7.87489 4.5468 7.88986 4.58431 7.89742 4.62182C7.90493 4.67031 7.91428 4.72065 7.92364 4.77085C7.93793 4.84593 7.95049 4.92132 7.96133 4.99697L7.97253 5.07208C7.97253 5.09461 7.97253 5.12452 7.98768 5.14705V5.16945C7.98768 5.17696 7.98952 5.18263 7.9915 5.18816C7.99335 5.19383 7.99519 5.1995 7.99519 5.20701C8.0027 5.21439 8.0027 5.22941 8.0027 5.24443C8.01021 5.25194 8.01785 5.25945 8.01021 5.27447C8.0106 5.27849 8.01191 5.28237 8.01403 5.28581C8.01588 5.2895 8.01785 5.29318 8.01785 5.29701V5.31203C8.00283 5.33206 8.00784 5.35195 8.01285 5.37198C8.01567 5.38177 8.01735 5.39185 8.01785 5.40203C8.01785 5.41323 8.0197 5.42258 8.02154 5.43194C8.02397 5.44177 8.02525 5.45185 8.02537 5.46198C8.02879 5.47595 8.03064 5.48992 8.03235 5.50322C8.03446 5.51838 8.0363 5.53248 8.04026 5.54447C8.04026 5.55949 8.04223 5.57253 8.04408 5.58571C8.04592 5.59889 8.0479 5.61206 8.0479 5.62695C8.0479 5.6317 8.05067 5.63644 8.05475 5.64277C8.05721 5.64663 8.05989 5.65138 8.06279 5.657C8.05172 5.67914 8.06094 5.69706 8.06964 5.71405C8.07281 5.71986 8.07554 5.72589 8.07781 5.73211C8.07974 5.73817 8.08172 5.74379 8.08374 5.74897C8.08883 5.76021 8.0919 5.77225 8.09283 5.78455C8.09705 5.81051 8.09889 5.82145 8.10258 5.83199C8.10522 5.8395 8.10891 5.84688 8.11523 5.85966C8.09626 5.88509 8.10403 5.90499 8.11141 5.92423L8.11536 5.93477V5.93529C8.12287 5.95769 8.13025 5.9801 8.13025 6.00974C8.13025 6.02872 8.13632 6.04479 8.14264 6.06153C8.14651 6.07119 8.14989 6.08143 8.15279 6.09223L8.1603 6.09974C8.16781 6.12227 8.17532 6.14481 8.1603 6.17485C8.15134 6.18842 8.15041 6.20476 8.14949 6.22202C8.14932 6.23391 8.1479 6.24574 8.14528 6.25734C8.15292 6.26485 8.1603 6.26485 8.16781 6.26485C8.15555 6.2833 8.16346 6.29687 8.17084 6.30939L8.17545 6.31729C8.17747 6.32142 8.1794 6.32507 8.18125 6.32823C8.18639 6.33706 8.19047 6.34404 8.19047 6.35485C8.19047 6.36618 8.1885 6.37738 8.18652 6.38871C8.18454 6.40004 8.18283 6.41111 8.18283 6.42244V6.44484C8.19785 6.4824 8.19785 6.51995 8.19785 6.55751C8.21287 6.55751 8.21287 6.57253 8.21287 6.58755C8.20904 6.59985 8.2085 6.61293 8.21129 6.6255C8.21204 6.6303 8.21253 6.63514 8.21274 6.63999C8.21265 6.64298 8.21287 6.64518 8.2134 6.64658C8.21419 6.64882 8.21604 6.65067 8.22038 6.65502C8.22038 6.65963 8.22315 6.66134 8.2271 6.66384C8.23008 6.66555 8.23283 6.66763 8.23527 6.67004L8.2354 6.66977C8.24278 6.65488 8.25029 6.63986 8.25029 6.62497C8.25412 6.59862 8.25781 6.57055 8.2615 6.54249C8.26519 6.51442 8.26901 6.48622 8.27283 6.45987C8.28034 6.41493 8.28785 6.37171 8.29523 6.32862C8.30287 6.2854 8.31038 6.24232 8.31789 6.19725L8.32975 6.11331L8.34029 6.03979L8.36283 5.90472L8.38536 5.76966C8.39037 5.71471 8.40209 5.65977 8.41369 5.60482C8.41949 5.57715 8.42542 5.54961 8.43042 5.52207C8.44162 5.46949 8.45098 5.41889 8.46033 5.36829C8.46962 5.31685 8.47964 5.26554 8.49038 5.21439C8.4942 5.1995 8.49789 5.18645 8.50158 5.17354C8.5054 5.16023 8.50909 5.14705 8.51291 5.1319L8.52411 5.08697L8.53544 5.0419V5.04164C8.54295 5.02675 8.55046 5.01173 8.55046 4.99684C8.5755 4.92173 8.59527 4.84135 8.61424 4.7644L8.62544 4.71933C8.63282 4.67479 8.64771 4.63026 8.66247 4.58572L8.663 4.58427C8.66668 4.56556 8.67037 4.545 8.6742 4.52444C8.67788 4.50376 8.68171 4.48307 8.68553 4.46423C8.70042 4.41943 8.71346 4.37265 8.72651 4.32587C8.73968 4.27883 8.75286 4.23179 8.76801 4.18659C8.76801 4.17908 8.76986 4.17341 8.77184 4.16788C8.77368 4.16221 8.77553 4.15655 8.77553 4.14904C8.77935 4.14535 8.77935 4.14152 8.77935 4.13784C8.77935 4.13415 8.77935 4.13032 8.78304 4.12663C8.79806 4.11161 8.79806 4.08908 8.79806 4.06655C8.80228 4.06246 8.80412 4.05587 8.80623 4.04823C8.80802 4.0417 8.81031 4.03531 8.81308 4.02913C8.81308 4.0253 8.81492 4.02161 8.81677 4.01779C8.81888 4.0144 8.82018 4.01057 8.82059 4.00659C8.84299 3.94664 8.85815 3.88655 8.87317 3.8266C8.87686 3.81158 8.88239 3.79853 8.88806 3.78535C8.89372 3.77218 8.89939 3.759 8.90321 3.74411C8.9069 3.73278 8.91072 3.7196 8.91441 3.70656C8.91823 3.69338 8.92192 3.6802 8.92561 3.669C8.93325 3.6466 8.94063 3.63145 8.94814 3.61643L8.97068 3.57149C8.99334 3.51483 9.01416 3.45659 9.03472 3.39822C9.0554 3.34024 9.07596 3.28226 9.09836 3.22626C9.10587 3.20017 9.11523 3.17579 9.12445 3.15154C9.13432 3.12681 9.14311 3.10167 9.1508 3.07617L9.196 2.95231L9.2408 2.82871C9.29351 2.70854 9.33857 2.5885 9.38351 2.46846C9.39866 2.41588 9.41355 2.37095 9.43608 2.32588C9.45848 2.28846 9.48115 2.25077 9.49604 2.21335C9.50737 2.17382 9.53135 2.14707 9.55533 2.12032C9.56324 2.11154 9.57088 2.10253 9.57853 2.09331ZM10.209 5.55224C10.209 5.56726 10.209 5.58229 10.2015 5.59731C10.2015 5.61971 10.2015 5.63473 10.1865 5.63486C10.1715 5.63486 10.1715 5.65739 10.1715 5.67242V5.77744C10.1712 5.78456 10.1702 5.79164 10.1683 5.79852C10.1656 5.80884 10.1641 5.81946 10.164 5.83014C10.164 5.86005 10.1621 5.89194 10.1603 5.92383C10.1581 5.95506 10.1568 5.98635 10.1565 6.01765C10.1516 6.03741 10.153 6.05375 10.1548 6.07128C10.1555 6.0805 10.1565 6.08973 10.1565 6.10014V6.11503C10.1451 6.13756 10.1466 6.16009 10.148 6.18262C10.1486 6.19018 10.1489 6.19765 10.149 6.20503C10.149 6.27262 10.1266 6.33271 10.0738 6.37764C10.0205 6.43099 9.95271 6.46755 9.87883 6.48279C9.84114 6.4903 9.80372 6.46777 9.78119 6.43022C9.76616 6.40031 9.75865 6.37777 9.75865 6.34773C9.75874 6.33789 9.75927 6.32753 9.76023 6.31663C9.76195 6.29423 9.76366 6.27051 9.75865 6.25022C9.7543 6.23283 9.75747 6.21543 9.76103 6.19659C9.76396 6.18214 9.76568 6.16746 9.76616 6.15271C9.76616 6.14138 9.76801 6.13203 9.76999 6.12267C9.77237 6.11283 9.7736 6.10275 9.77368 6.09263V6.07774C9.75865 6.04769 9.76616 6.01014 9.77368 5.98023V5.97258C9.76353 5.95229 9.76709 5.92857 9.77051 5.90617C9.77209 5.89537 9.77368 5.88483 9.77368 5.87508C9.77368 5.85254 9.78119 5.8225 9.7887 5.79997C9.79621 5.78495 9.79621 5.76241 9.79621 5.74752C9.79621 5.72381 9.79832 5.70246 9.80016 5.6819C9.80229 5.66379 9.80348 5.64558 9.80372 5.62735C9.80372 5.61233 9.80556 5.59546 9.80754 5.5786C9.80938 5.56173 9.81123 5.54486 9.81123 5.52984C9.81123 5.46238 9.81123 5.40229 9.81874 5.33482C9.82638 5.28212 9.84127 5.22967 9.8638 5.18461C9.89385 5.13954 9.9314 5.10199 9.97633 5.07959C10.0286 5.04968 10.0811 5.04216 10.1334 5.03465H10.1339C10.1715 5.02714 10.2015 5.0195 10.2391 4.9971C10.2492 4.99363 10.2592 4.98985 10.2691 4.98577C10.2783 4.98208 10.2878 4.97826 10.299 4.97457C10.3065 4.97075 10.3159 4.96706 10.3253 4.96337C10.3346 4.95968 10.3441 4.95586 10.3516 4.95203C10.3741 4.93701 10.4041 4.92199 10.4341 4.92199C10.4717 4.92199 10.5017 4.9295 10.5242 4.96706C10.5273 4.97602 10.5327 4.98498 10.5381 4.99394C10.5461 5.00751 10.5543 5.02108 10.5543 5.03452C10.5618 5.07208 10.5618 5.11714 10.5393 5.15456C10.5183 5.18948 10.4909 5.21136 10.457 5.23837L10.4491 5.24456C10.4033 5.27538 10.3606 5.31055 10.3216 5.34958C10.2851 5.38717 10.2547 5.43026 10.2316 5.47727C10.2275 5.48966 10.2238 5.50214 10.2202 5.51469C10.2166 5.52787 10.2129 5.54104 10.209 5.55224ZM9.47351 5.39478C9.49591 5.41718 9.50355 5.44722 9.50355 5.47727C9.50355 5.48847 9.50724 5.49598 9.50921 5.49967C9.51119 5.50336 9.51106 5.50362 9.50342 5.49967C9.48102 5.50718 9.47337 5.51469 9.48102 5.53722C9.48853 5.55224 9.49591 5.56726 9.50342 5.5898C9.50325 5.59247 9.5028 5.59512 9.5021 5.5977C9.50039 5.60561 9.49815 5.61641 9.50342 5.62722C9.50342 5.63473 9.50342 5.64962 9.49591 5.65726C9.4884 5.67966 9.4884 5.69482 9.4884 5.70984C9.4884 5.71735 9.48655 5.7267 9.48457 5.73619C9.48247 5.74479 9.48123 5.75357 9.48088 5.76241C9.47737 5.77461 9.4749 5.78709 9.47351 5.7997C9.47153 5.81288 9.46955 5.82606 9.46586 5.83739C9.45835 5.8673 9.45835 5.88983 9.45835 5.91988C9.45835 5.93964 9.45624 5.95743 9.4544 5.97417C9.45255 5.98919 9.45084 6.00316 9.45084 6.01739C9.45084 6.03992 9.44333 6.06245 9.43582 6.08498V6.17498C9.43236 6.19098 9.42989 6.20717 9.42844 6.22347C9.4266 6.2406 9.42462 6.25747 9.4208 6.27249C9.4208 6.31004 9.41342 6.3476 9.40591 6.38502V6.40004C9.40591 6.41506 9.40419 6.43009 9.40261 6.44511C9.39919 6.47515 9.39589 6.50506 9.40591 6.53511C9.41052 6.53511 9.40947 6.538 9.40788 6.54196C9.40679 6.54456 9.40613 6.54732 9.40591 6.55013L9.39458 6.60626L9.38337 6.66266C9.38325 6.66908 9.38196 6.67542 9.37955 6.68137C9.37771 6.68704 9.37586 6.69257 9.37586 6.70008V6.72261H9.39826C9.39826 6.74501 9.39827 6.75266 9.36835 6.75266C9.36835 6.76768 9.36071 6.7827 9.34582 6.77506L9.33831 6.7827C9.30879 6.81788 9.2748 6.83936 9.23988 6.8615L9.21063 6.88021L9.2101 6.88047C9.1877 6.88785 9.1653 6.89523 9.13552 6.89523C9.06805 6.88021 9.05303 6.86519 9.04552 6.79772C9.04163 6.75782 9.04106 6.71767 9.04381 6.67768C9.04486 6.65765 9.04543 6.63762 9.04552 6.61759C9.04552 6.58386 9.04736 6.55013 9.04934 6.51626C9.05119 6.48253 9.05303 6.4488 9.05303 6.41506C9.05303 6.40004 9.05488 6.38502 9.05685 6.37C9.05894 6.3551 9.06017 6.3401 9.06054 6.32507C9.06818 6.29502 9.06818 6.27249 9.06818 6.24258C9.06818 6.23876 9.07003 6.23507 9.07187 6.23125C9.07398 6.22785 9.07529 6.22402 9.07569 6.22005C9.08321 6.21254 9.08321 6.20503 9.08321 6.19751C9.08321 6.16747 9.08505 6.13558 9.0869 6.10369C9.08874 6.07181 9.09072 6.03992 9.09072 6.00988V5.88246C9.09072 5.86374 9.09256 5.8449 9.09441 5.82619C9.09625 5.80748 9.09836 5.78864 9.09836 5.76992C9.10574 5.67242 9.12827 5.58229 9.18823 5.4998C9.23329 5.4322 9.30089 5.39478 9.37586 5.37225C9.41355 5.36473 9.45097 5.36474 9.47337 5.39465L9.47351 5.39478ZM12.4305 4.80182C12.4305 4.81697 12.4305 4.83186 12.4456 4.83937C12.4482 4.8421 12.45 4.84451 12.451 4.84662C12.4461 4.84546 12.4417 4.84295 12.4382 4.83937L12.4494 4.86191L12.4607 4.88444C12.4567 4.88405 12.4528 4.88274 12.4494 4.88062C12.446 4.87856 12.4421 4.87729 12.4382 4.87693C12.4382 4.88813 12.4363 4.9013 12.4344 4.91448C12.4325 4.92766 12.4307 4.9407 12.4307 4.9519C12.4232 5.00461 12.4232 5.04941 12.4232 5.09448V5.11701C12.4326 5.13612 12.4271 5.15812 12.4217 5.1792C12.4187 5.19159 12.4156 5.20358 12.4156 5.21465C12.4062 5.22518 12.3982 5.23692 12.3919 5.24957C12.3824 5.2667 12.3727 5.28422 12.3556 5.29701C12.3105 5.34971 12.2504 5.37963 12.1829 5.40216C12.1555 5.41057 12.1259 5.40787 12.1004 5.39465C12.0704 5.37225 12.0554 5.3422 12.0554 5.31216C12.0554 5.29345 12.0572 5.27461 12.0592 5.25589C12.0611 5.23718 12.0629 5.21834 12.0629 5.19963C12.0704 5.17723 12.0704 5.16207 12.0704 5.13967C12.0779 5.02701 12.0856 4.91435 12.1004 4.80195C12.1004 4.74951 12.108 4.69693 12.1155 4.64435C12.1155 4.58242 12.1217 4.52695 12.1286 4.46607L12.1305 4.44934C12.1305 4.43432 12.1323 4.42127 12.1342 4.40809C12.136 4.39492 12.138 4.38174 12.138 4.36672C12.1417 4.34814 12.1435 4.32758 12.1454 4.30703C12.1472 4.28647 12.1492 4.26552 12.1529 4.24668C12.168 4.17157 12.1906 4.11174 12.2505 4.05917C12.2806 4.03664 12.3106 4.0141 12.348 4.00659H12.4156C12.4457 4.0141 12.4607 4.02899 12.4607 4.05917C12.4607 4.07406 12.4681 4.08921 12.4756 4.1041C12.4794 4.11882 12.48 4.1342 12.4773 4.14917C12.4763 4.15672 12.4758 4.16419 12.4756 4.17157C12.4756 4.18448 12.473 4.19595 12.4703 4.20662C12.4669 4.22098 12.4637 4.23389 12.4681 4.24668C12.4681 4.26183 12.4681 4.28423 12.4606 4.29938V4.3293C12.4649 4.33799 12.4616 4.34419 12.4582 4.35077C12.4551 4.3556 12.4534 4.36114 12.4531 4.36685C12.4456 4.38187 12.4456 4.38925 12.4456 4.39676V4.46436C12.4456 4.47226 12.4465 4.47898 12.4473 4.4857C12.4499 4.49852 12.4493 4.51178 12.4456 4.52431C12.4405 4.53433 12.4423 4.54434 12.4438 4.55436C12.4447 4.55933 12.4453 4.56434 12.4456 4.56938V4.6744C12.4541 4.68718 12.4529 4.70009 12.4517 4.71287C12.4508 4.72263 12.4499 4.73224 12.4531 4.74186L12.4456 4.74937C12.4373 4.76579 12.4322 4.78363 12.4305 4.80195V4.80182ZM12.451 4.84662L12.4521 4.84873C12.4531 4.8507 12.4531 4.8507 12.4532 4.84688L12.451 4.84662ZM9.42844 4.92199C9.40604 4.93701 9.38351 4.9295 9.36097 4.92199C9.31591 4.90697 9.30089 4.86942 9.29338 4.80195C9.29612 4.79533 9.29833 4.7885 9.29997 4.78153C9.30285 4.76749 9.30825 4.7541 9.31591 4.742C9.32045 4.73245 9.32441 4.72263 9.32777 4.71261C9.3337 4.69601 9.33884 4.68138 9.35346 4.66689C9.36084 4.65187 9.37586 4.63684 9.39089 4.62195C9.40973 4.61062 9.42673 4.59744 9.44359 4.58427C9.46046 4.57109 9.47733 4.55805 9.49604 4.54685C9.52608 4.52444 9.55612 4.5168 9.59355 4.5168H9.62359C9.63705 4.52265 9.64778 4.53339 9.65363 4.54685C9.65363 4.56187 9.66114 4.57689 9.66865 4.59178C9.68368 4.64449 9.67617 4.68191 9.65363 4.72684L9.6087 4.79444C9.60274 4.80782 9.59204 4.81852 9.57866 4.82448C9.53359 4.86204 9.48115 4.89959 9.42844 4.92199ZM12.4831 3.33879C12.5127 3.33134 12.5437 3.33134 12.5732 3.33879C12.5807 3.33879 12.5956 3.33879 12.6108 3.3463C12.6332 3.37621 12.6407 3.40599 12.6482 3.4359V3.44381C12.6429 3.45435 12.6396 3.46568 12.6361 3.47728C12.6295 3.49902 12.6229 3.52182 12.6031 3.54145C12.5962 3.55177 12.5887 3.56175 12.5807 3.57136C12.5732 3.58085 12.5657 3.5902 12.5582 3.6014C12.5466 3.6246 12.5261 3.63883 12.5034 3.65451C12.4968 3.65899 12.49 3.66382 12.4831 3.669L12.4681 3.67638C12.4305 3.71393 12.3855 3.70642 12.3405 3.6914C12.3266 3.69119 12.3132 3.68584 12.303 3.67638C12.2993 3.669 12.2955 3.66334 12.2918 3.65767C12.2875 3.65176 12.2837 3.6455 12.2804 3.63896C12.267 3.60823 12.2644 3.57387 12.2729 3.54145C12.2804 3.49638 12.303 3.45896 12.333 3.42892C12.378 3.38385 12.423 3.35381 12.4831 3.33879Z" fill="#151517"/>
</svg>
