<svg width="50" height="22" viewBox="0 0 50 22" fill="none" xmlns="http://www.w3.org/2000/svg">
<path fill-rule="evenodd" clip-rule="evenodd" d="M49.8542 11.3268C49.8542 7.84085 48.1657 5.09021 44.9384 5.09021C41.6976 5.09021 39.7367 7.84085 39.7367 11.2996C39.7367 15.3983 42.0516 17.4681 45.3742 17.4681C46.9946 17.4681 48.2201 17.1004 49.1461 16.583V13.8596C48.2201 14.3226 47.158 14.6085 45.8099 14.6085C44.4891 14.6085 43.318 14.1455 43.1682 12.5387H49.8269C49.8269 12.3617 49.8542 11.6536 49.8542 11.3268ZM43.1274 10.0332C43.1274 8.49447 44.0669 7.85447 44.9248 7.85447C45.7554 7.85447 46.6405 8.49447 46.6405 10.0332H43.1274ZM34.4805 5.09021C33.1461 5.09021 32.2882 5.7166 31.8116 6.15234L31.6346 5.30809H28.6388V21.1855L32.0431 20.4638L32.0567 16.6102C32.5469 16.9643 33.2686 17.4681 34.4669 17.4681C36.9044 17.4681 39.124 15.5072 39.124 11.1906C39.1103 7.2417 36.8635 5.09021 34.4805 5.09021ZM33.6635 14.4723C32.8601 14.4723 32.3835 14.1864 32.0567 13.8323L32.0431 8.78043C32.3971 8.38553 32.8874 8.11319 33.6635 8.11319C34.9027 8.11319 35.7605 9.50213 35.7605 11.286C35.7605 13.1106 34.9163 14.4723 33.6635 14.4723ZM23.9546 4.28681L27.3725 3.55149V0.787234L23.9546 1.50894V4.28681Z" fill="#151517"/>
<path d="M27.3725 5.32164H23.9546V17.2365H27.3725V5.32164Z" fill="#151517"/>
<path fill-rule="evenodd" clip-rule="evenodd" d="M20.291 6.32958L20.0731 5.32192H17.1319V17.2368H20.5361V9.16192C21.3395 8.11341 22.7012 8.30404 23.1233 8.45383V5.32192C22.6876 5.15851 21.0944 4.85894 20.291 6.32958ZM13.4825 2.36702L10.1599 3.07511L10.1463 13.9823C10.1463 15.9977 11.6578 17.4819 13.6731 17.4819C14.7897 17.4819 15.6067 17.2777 16.0561 17.0326V14.2683C15.6204 14.4453 13.4689 15.0717 13.4689 13.0564V8.22234H16.0561V5.32192H13.4689L13.4825 2.36702ZM4.27738 8.78064C4.27738 8.24957 4.71313 8.04532 5.43483 8.04532C6.46972 8.04532 7.77696 8.35851 8.81185 8.91681V5.71681C7.68164 5.26745 6.56504 5.09043 5.43483 5.09043C2.67057 5.09043 0.832275 6.53383 0.832275 8.94404C0.832275 12.7023 6.00674 12.1032 6.00674 13.7236C6.00674 14.35 5.46206 14.5543 4.69951 14.5543C3.5693 14.5543 2.12589 14.0913 0.982063 13.4649V16.7057C2.24845 17.2504 3.52845 17.4819 4.69951 17.4819C7.53185 17.4819 9.47908 16.0794 9.47908 13.6419C9.46547 9.58404 4.27738 10.3057 4.27738 8.78064Z" fill="#151517"/>
</svg>
