<svg width="65" height="22" viewBox="0 0 65 22" fill="none" xmlns="http://www.w3.org/2000/svg">
<path d="M29.6928 10.7663C31.5196 10.1583 31.8507 8.62506 31.847 7.37528C31.8434 5.46458 30.496 3.81461 26.5083 3.81461L19.0639 3.81317V18.1572H26.4877C30.5004 18.1572 31.9763 16.0974 31.9763 14.034C31.9763 11.5352 29.6928 10.7663 29.6928 10.7663ZM22.597 6.93394H27.609L27.6266 6.93763C28.192 7.03749 28.6038 7.51849 28.6038 8.08243C28.6038 8.66027 28.1626 9.20448 27.5796 9.28372L22.5992 9.29181L22.597 6.93394ZM27.3674 14.8138H22.597V12.4134H27.4841L27.4951 12.4148C28.1031 12.4839 28.5642 12.9898 28.5642 13.5898C28.5642 14.2455 28.0187 14.805 27.3674 14.8138ZM48.6451 3.81605H61.2242L61.2168 6.94571H52.1408L52.1497 9.25804H60.332V12.4046H52.1497V14.9063H61.2271L61.2249 18.1873H48.6451M41.3283 3.83371H33.7216V18.1828H37.2144V12.3767L41.0618 12.373C42.1632 12.3899 43.02 13.2916 43.02 14.4048V18.1696L46.4387 18.1682L46.4328 13.5384C46.4328 11.3927 44.3601 10.7582 44.3601 10.7582C44.3601 10.7582 46.4791 10.1252 46.4791 7.58896C46.4791 4.48498 43.813 3.83371 41.3283 3.83371ZM43.2352 8.28508C43.172 8.75725 42.7007 9.26907 42.1118 9.26907L37.2019 9.27051V6.97359H42.1132C42.7007 6.97359 43.1603 7.4046 43.2352 7.97229M16.7994 14.7155C16.7502 14.7162 12.0246 14.8072 10.3931 14.6487C7.76748 14.3916 6.83646 12.445 6.83646 10.8574C6.83646 8.87546 8.18673 7.41863 10.2779 7.14543C11.2735 7.01475 16.7128 7.07639 16.7708 7.07639L16.8846 7.07865L16.8963 3.81542H16.781L10.6237 3.82714C9.93791 3.86892 8.8013 3.93802 7.63681 4.41381C6.51994 4.92632 5.54638 5.71353 4.82019 6.69237C3.89506 7.93778 3.40527 9.41741 3.40527 10.9683C3.40527 11.4573 3.44424 11.9412 3.52279 12.4061C3.96559 14.5811 5.39216 16.3824 7.43705 17.3502C8.12729 17.6542 9.19261 18.0176 11.3395 18.1389L12.4967 18.163L16.7884 18.1667H16.9022L16.914 14.714" fill="#151517"/>
</svg>
