<svg width="72" height="22" viewBox="0 0 72 22" fill="none" xmlns="http://www.w3.org/2000/svg">
<path fill-rule="evenodd" clip-rule="evenodd" d="M12.5419 0.833689L1.24114 1.66637C0.329484 1.74467 0.012207 2.33973 0.012207 3.0519V15.4128C0.012207 15.9683 0.209654 16.4429 0.68625 17.0768L3.34293 20.5239C3.77868 21.0788 4.17561 21.1979 5.00897 21.1571L18.1324 20.3653C19.2422 20.2863 19.5601 19.7709 19.5601 18.8994V4.99369C19.5601 4.54297 19.3817 4.41292 18.8561 4.0296L18.7662 3.96356L15.1591 1.42807C14.2869 0.794881 13.9288 0.71454 12.5419 0.833689ZM5.3065 4.7656C4.23485 4.83777 3.99178 4.85411 3.3831 4.35982L1.83553 3.13156C1.67757 2.97292 1.75723 2.7748 2.15348 2.73599L13.0178 1.94348C13.9295 1.86382 14.4054 2.18177 14.7622 2.4582L16.6257 3.8056C16.7046 3.84509 16.9028 4.08271 16.6651 4.08271L5.44472 4.75675L5.3065 4.7656ZM4.05646 18.7802V6.97428C4.05646 6.45956 4.2151 6.22194 4.69102 6.18177L17.5768 5.42943C18.0139 5.38994 18.212 5.66773 18.212 6.18177V17.9081C18.212 18.4242 18.1324 18.8599 17.4182 18.8994L5.08795 19.6129C4.37306 19.6524 4.05646 19.4155 4.05646 18.7802ZM16.2301 7.60748C16.3091 7.96492 16.2301 8.32169 15.872 8.36186L15.2782 8.48033V17.1952C14.7622 17.473 14.2862 17.631 13.89 17.631C13.2554 17.631 13.0968 17.4335 12.6209 16.8391L8.73527 10.7387V16.6417L9.96489 16.9188C9.96489 16.9188 9.96489 17.6316 8.97221 17.6316L6.23723 17.7903C6.15757 17.6316 6.23723 17.2354 6.51502 17.1564L7.22855 16.959V9.15301L6.23723 9.07335C6.15825 8.71658 6.3557 8.20186 6.91127 8.16237L9.84574 7.96492L13.89 14.145V8.67777L12.8592 8.55931C12.7795 8.12288 13.0968 7.8056 13.4931 7.7668L16.2301 7.60748Z" fill="#151517"/>
<path d="M34.7322 5.56665V16.6032H32.9708L27.7494 9.0526H27.6581V16.6032H25.6748V5.56665H27.4532L32.6631 13.1152H32.7652V5.56733H34.7328L34.7322 5.56665ZM39.9849 16.7639C39.177 16.7639 38.4764 16.586 37.8831 16.2301C37.2911 15.8752 36.8141 15.357 36.5092 14.7377C36.186 14.0986 36.0244 13.3515 36.0244 12.4963C36.0244 11.6412 36.186 10.8923 36.5092 10.2495C36.994 9.28546 37.2908 9.10707 37.8831 8.75167C38.4759 8.39581 39.1765 8.21788 39.9849 8.21788C40.7897 8.21788 41.4883 8.39581 42.0806 8.75167C42.6736 9.10779 43.1508 9.62803 43.4545 10.2495C43.7814 10.8923 43.9448 11.6412 43.9448 12.4963C43.9448 13.3515 43.7814 14.0986 43.4545 14.7377C43.1498 15.3572 42.6727 15.8757 42.0806 16.2308C41.4883 16.5862 40.7897 16.7639 39.9849 16.7639ZM39.9904 15.2116C40.4352 15.2116 40.8051 15.0913 41.1002 14.8507C41.3952 14.607 41.616 14.2802 41.7626 13.8703C41.9102 13.4573 41.9839 12.9975 41.9839 12.4909C41.9839 11.9843 41.9102 11.5245 41.7626 11.1115C41.6156 10.6984 41.3947 10.3698 41.1002 10.1256C40.8051 9.8778 40.4352 9.75388 39.9904 9.75388C39.541 9.75388 39.1675 9.8778 38.8697 10.1256C38.5715 10.3698 38.3486 10.6984 38.2011 11.1115C38.0533 11.5562 37.9806 12.0223 37.986 12.4909C37.986 12.9979 38.0577 13.4577 38.2011 13.8703C38.3486 14.2802 38.5715 14.607 38.8697 14.8507C39.1679 15.0913 39.5415 15.2116 39.9904 15.2116ZM49.2581 8.32682V9.82469H44.5167V8.32682H49.2581ZM45.6905 6.34282H47.6254V14.1181C47.6254 14.38 47.6649 14.5813 47.7439 14.722C47.8265 14.8619 47.9343 14.9569 48.0673 15.0073C48.1999 15.0573 48.349 15.0822 48.5146 15.0822C48.6264 15.0825 48.738 15.0736 48.8482 15.0557C48.949 15.0375 49.0282 15.0214 49.0859 15.0073L49.4086 16.5215C49.2635 16.5681 49.1163 16.6076 48.9674 16.64C48.7768 16.6831 48.543 16.7081 48.2661 16.7149C47.7814 16.7299 47.3433 16.6563 46.9521 16.4943C46.575 16.3379 46.2526 16.0736 46.0254 15.7345C45.7989 15.3895 45.6875 14.9567 45.6911 14.4361L45.6905 6.34282ZM50.4448 16.6026V8.32614H52.3853V16.6026H50.4448ZM51.4205 7.14554C51.1114 7.14554 50.8472 7.04341 50.628 6.83916C50.5238 6.74533 50.4406 6.63051 50.384 6.50226C50.3273 6.374 50.2984 6.23521 50.2991 6.09499C50.2991 5.80449 50.4088 5.55666 50.628 5.3515C50.8407 5.14749 51.1251 5.03525 51.4198 5.03899C51.7289 5.03899 51.9931 5.14338 52.2123 5.35218C52.4347 5.55643 52.546 5.80404 52.546 6.09499C52.546 6.38231 52.4347 6.63014 52.2123 6.83848C51.9931 7.04364 51.7292 7.14622 51.4205 7.14622V7.14554ZM57.5414 16.7639C56.7334 16.7639 56.0328 16.586 55.4396 16.2301C54.8476 15.8752 54.3705 15.357 54.0656 14.7377C53.7424 14.0986 53.5808 13.3515 53.5808 12.4963C53.5808 11.6412 53.7424 10.8923 54.0656 10.2495C54.3888 9.60682 54.8468 9.10753 55.4396 8.75167C56.0324 8.39581 56.733 8.21788 57.5414 8.21788C58.3461 8.21788 59.0447 8.39581 59.637 8.75167C60.2298 9.10753 60.688 9.60682 61.0117 10.2495C61.3385 10.8923 61.5019 11.6412 61.5019 12.4963C61.5019 13.3515 61.3385 14.0986 61.0117 14.7377C60.7067 15.3573 60.2294 15.8758 59.637 16.2308C59.0447 16.5862 58.3461 16.7639 57.5414 16.7639ZM57.5468 15.2116C57.9916 15.2116 58.3616 15.0913 58.6566 14.8507C58.9512 14.607 59.1722 14.2802 59.3197 13.8703C59.4668 13.4573 59.5403 12.9975 59.5403 12.4909C59.5403 11.9843 59.4668 11.5245 59.3197 11.1115C59.1722 10.6984 58.9512 10.3698 58.6566 10.1256C58.3616 9.8778 57.9916 9.75388 57.5468 9.75388C57.0974 9.75388 56.7239 9.8778 56.4261 10.1256C56.1279 10.3698 55.905 10.6984 55.7575 11.1115C55.6097 11.5562 55.537 12.0223 55.5424 12.4909C55.5424 12.9979 55.6141 13.4577 55.7575 13.8703C55.905 14.2802 56.1279 14.607 56.4261 14.8507C56.7243 15.0913 57.0979 15.2116 57.5468 15.2116ZM64.6317 11.7474V16.6019H62.6927V8.32682H64.546V9.72733H64.6433C64.8274 9.27665 65.1451 8.89315 65.5536 8.62843C65.9739 8.35519 66.4932 8.21856 67.1114 8.21856C67.6788 8.21856 68.1744 8.34089 68.5984 8.58554C69.0277 8.83209 69.373 9.20187 69.5897 9.64699C69.8266 10.11 69.9451 10.6721 69.9451 11.3335V16.6032H68.0115V11.6296C68.0115 11.0763 67.8676 10.6435 67.5798 10.3312C67.2921 10.0149 66.8949 9.85669 66.3883 9.85669C66.0479 9.85669 65.7445 9.93226 65.478 10.0834C65.2125 10.23 65.0042 10.4456 64.853 10.7302C64.706 11.0098 64.6322 11.3491 64.6317 11.7481V11.7474Z" fill="#151517"/>
</svg>
