<svg width="105" height="22" viewBox="0 0 105 22" fill="none" xmlns="http://www.w3.org/2000/svg">
<path d="M22.8492 3.11245C21.1708 2.3562 19.4012 1.82101 17.5849 1.52028C17.3534 1.91173 17.0964 2.44274 16.916 2.85971C14.982 2.58075 13.018 2.58075 11.0841 2.85971C10.9036 2.44274 10.633 1.91173 10.4152 1.52028C8.5974 1.81767 6.8266 2.3527 5.14828 3.1116C1.81573 7.94088 0.915367 12.6561 1.36555 17.3067C3.32324 18.7173 5.50331 19.7902 7.81534 20.4808C8.33511 19.7919 8.79572 19.0603 9.19227 18.2938C8.43842 18.0171 7.71052 17.6743 7.01709 17.2693C7.19751 17.1433 7.37707 17.0038 7.54472 16.8651C11.7402 18.7483 16.2854 18.7483 20.4298 16.8651C20.6102 17.0038 20.777 17.1433 20.9575 17.2693C20.2622 17.6743 19.5414 18.0156 18.7823 18.293C19.1788 19.0595 19.6394 19.7911 20.1592 20.48C22.472 19.7915 24.6526 18.719 26.6099 17.3076C27.163 11.9226 25.7333 7.24649 22.8492 3.1133M9.77181 14.4398C8.50976 14.4398 7.48004 13.3139 7.48004 11.9362C7.48004 10.5585 8.48423 9.43434 9.77181 9.43434C11.0458 9.43434 12.0883 10.5585 12.0627 11.9362C12.0627 13.3148 11.0458 14.4398 9.77181 14.4398ZM18.2291 14.4389C16.9679 14.4389 15.9365 13.3131 15.9365 11.9354C15.9365 10.5576 16.9416 9.43349 18.2291 9.43349C19.5031 9.43349 20.5456 10.5576 20.52 11.9354C20.52 13.3139 19.5158 14.4389 18.2291 14.4389ZM35.5293 5.48837H41.0004C42.3127 5.48837 43.4326 5.69091 44.3466 6.09512C45.2605 6.50018 45.9422 7.05672 46.3932 7.77664C46.8443 8.49657 47.0749 9.31861 47.0749 10.2538C47.0749 11.1644 46.8434 11.9856 46.3669 12.731C45.8903 13.4646 45.1703 14.0585 44.2053 14.4883C43.2397 14.9183 42.0426 15.1333 40.614 15.1333H35.5284L35.5293 5.48837ZM40.5502 12.6808C41.4378 12.6808 42.1195 12.4655 42.596 12.0239C43.0726 11.5941 43.3168 10.9874 43.3168 10.2411C43.3168 9.54582 43.0981 8.99013 42.6735 8.57316C42.248 8.15618 41.6055 7.94088 40.7425 7.94088H39.0312V12.6808H40.5502ZM55.5969 15.1206C54.8378 14.9316 54.1553 14.6525 53.5502 14.2738V11.9873C54.014 12.3413 54.6191 12.6187 55.3909 12.8468C56.1174 13.067 56.8717 13.1817 57.6308 13.1871C57.9652 13.1871 58.2223 13.1497 58.3899 13.0612C58.5575 12.9727 58.6469 12.8714 58.6469 12.7455C58.6482 12.6819 58.6364 12.6188 58.6121 12.56C58.5877 12.5013 58.5515 12.4483 58.5056 12.4042C58.4154 12.3157 58.235 12.24 57.9652 12.1643L56.2794 11.7975C55.3135 11.5822 54.6318 11.2665 54.22 10.887C53.8081 10.5083 53.6149 9.99003 53.6149 9.35776C53.6149 8.82675 53.7953 8.35956 54.1425 7.96726C54.5025 7.57581 55.0046 7.27202 55.6616 7.05672C56.3168 6.84227 57.0768 6.72909 57.9652 6.72909C58.7499 6.72909 59.4715 6.80483 60.1268 6.98183C60.7838 7.14607 61.3242 7.36052 61.7488 7.61326V9.77473C61.2713 9.50737 60.7609 9.30341 60.2306 9.16799C59.6508 9.0163 59.0539 8.93994 58.4546 8.94078C57.5789 8.94078 57.1415 9.09225 57.1415 9.38329C57.1415 9.52199 57.2061 9.62326 57.3474 9.699C57.4887 9.77473 57.7338 9.83856 58.0937 9.91429L59.4971 10.167C60.4102 10.3185 61.0927 10.5968 61.5429 10.9882C61.9939 11.3797 62.2126 11.9498 62.2126 12.72C62.2126 13.5539 61.839 14.2245 61.0927 14.7044C60.3464 15.198 59.2911 15.438 57.9269 15.438C57.1412 15.4155 56.3601 15.3094 55.5969 15.1214M65.689 14.8304C64.8907 14.4389 64.2729 13.9198 63.8738 13.2629C63.4619 12.6059 63.2696 11.8605 63.2696 11.0257C63.2696 10.2045 63.4755 9.45817 63.8993 8.81313C64.3248 8.15618 64.9427 7.6507 65.7528 7.27202C66.5638 6.90525 67.5425 6.71548 68.6752 6.71548C70.0776 6.71548 71.2367 7.00651 72.1626 7.58773V10.1032C71.81 9.8691 71.4237 9.69004 71.0172 9.5722C70.567 9.43389 70.0983 9.36558 69.6275 9.36967C68.7518 9.36967 68.0829 9.52199 67.5808 9.83771C67.0915 10.1534 66.8472 10.5585 66.8472 11.0631C66.8472 11.5567 67.0787 11.9609 67.568 12.2774C68.0446 12.5932 68.739 12.7574 69.6402 12.7574C70.1032 12.7574 70.567 12.6944 71.0172 12.5557C71.4682 12.4162 71.8665 12.2647 72.189 12.0622V14.5019C71.1593 15.1086 69.9619 15.4124 68.6105 15.4124C67.465 15.4124 66.5 15.2099 65.689 14.8304ZM75.833 14.8304C75.022 14.4389 74.4033 13.9198 73.9787 13.2501C73.5509 12.5785 73.3274 11.7972 73.3353 11.001C73.3353 10.1789 73.554 9.43349 73.9787 8.78845C74.4042 8.14427 75.022 7.63794 75.8194 7.27202C76.6176 6.90525 77.5827 6.71548 78.6907 6.71548C79.7979 6.71548 80.7629 6.89248 81.5611 7.27202C82.3594 7.63794 82.9772 8.14427 83.4019 8.78845C83.8265 9.43264 84.0325 10.167 84.0325 11.001C84.0325 11.8222 83.8265 12.5804 83.4019 13.2501C82.9764 13.9207 82.3722 14.4508 81.5611 14.8304C80.7501 15.2099 79.7979 15.4116 78.6907 15.4116C77.5954 15.4116 76.644 15.2099 75.833 14.8304ZM80.0932 12.3906C80.4276 12.0622 80.608 11.6077 80.608 11.0631C80.608 10.5074 80.4404 10.0777 80.0932 9.7492C79.7459 9.42016 79.2827 9.25564 78.7035 9.25564C78.0984 9.25564 77.6337 9.42073 77.2857 9.7492C76.9512 10.0777 76.7708 10.5074 76.7708 11.064C76.7708 11.6205 76.9385 12.0622 77.2857 12.3915C77.6337 12.7319 78.0984 12.897 78.7035 12.897C79.2821 12.8842 79.7587 12.72 80.0932 12.3906ZM92.643 7.22096V10.1909C92.2827 9.96393 91.8195 9.85047 91.2533 9.85047C90.5069 9.85047 89.9274 10.0777 89.5283 10.5202C89.1292 10.9627 88.9232 11.6571 88.9232 12.5923V15.1206H85.4868V7.0814H88.8594V9.64794C89.039 8.71187 89.3479 8.01747 89.7598 7.57496C90.1716 7.13246 90.7129 6.89248 91.369 6.89248C91.8575 6.89248 92.283 7.00566 92.643 7.22096ZM104.229 5.21096V15.1333H100.793V13.3258C100.497 14.0083 100.059 14.5257 99.4672 14.8806C98.8738 15.2346 98.1396 15.4116 97.2648 15.4116C96.4921 15.4116 95.8104 15.2218 95.2309 14.8551C94.6486 14.4829 94.1845 13.9524 93.8931 13.3258C93.5845 12.6683 93.4302 11.9351 93.4302 11.1261C93.4165 10.2796 93.5836 9.52143 93.9314 8.85143C94.2529 8.20233 94.753 7.65852 95.373 7.28393C95.9903 6.9044 96.698 6.71463 97.4963 6.71463C99.1311 6.71463 100.227 7.40987 100.793 8.81313V5.21096H104.229ZM100.278 12.3268C100.625 11.9983 100.806 11.5558 100.806 11.0248C100.806 10.5074 100.639 10.0896 100.291 9.77388C99.9438 9.45817 99.48 9.29393 98.8996 9.29393C98.3203 9.29393 97.8571 9.45817 97.5099 9.78665C97.1618 10.1151 96.995 10.5321 96.995 11.0631C96.995 11.5941 97.1618 12.0111 97.5099 12.3396C97.8571 12.668 98.3073 12.8331 98.8868 12.8331C99.4672 12.8331 99.9302 12.668 100.278 12.3268ZM50.2432 7.5622C51.2304 7.5622 52.032 6.85504 52.032 5.98279C52.032 5.11054 51.2295 4.40253 50.2423 4.40253C49.2552 4.40253 48.4535 5.10969 48.4535 5.98279C48.4535 6.85504 49.2543 7.5622 50.2432 7.5622ZM52.032 8.64889C50.9376 9.11693 49.5726 9.12884 48.4535 8.64889V15.1333H52.032V8.64889Z" fill="#151517"/>
</svg>
