<svg width="102" height="22" viewBox="0 0 102 22" fill="none" xmlns="http://www.w3.org/2000/svg">
<path d="M24.8249 18.2581L24.2225 16.4228L23.6201 18.2581H21.6947L23.2678 19.3756L22.6659 21.2114L24.2225 20.0768L25.7791 21.2114L25.1766 19.3762L26.7332 18.2416L24.8249 18.2581ZM23.0006 6.66195L26.917 3.20825L24.1726 0.78873L17.6116 6.57856V11.4006L23.0006 6.66195ZM26.9006 11.0335L24.172 8.61401L17.6121 14.4038V19.2259L23.0012 14.4872L26.9006 11.0335ZM27.2182 11.3172L24.4738 13.7361L30.8 19.3092V14.4872C30.817 14.4872 27.2182 11.3172 27.2182 11.3172ZM24.4902 5.8944L30.817 11.4505V6.6455L27.2352 3.47488L24.4902 5.8944ZM4.3721 13.0191H10.2473V17.2068H4.3721V13.0191ZM4.3721 5.27718H10.2473V9.46496H4.3721V5.27718ZM11.3682 20.7774L13.9623 18.1917V12.9516L12.0376 11.2327L13.9793 9.54778V4.29235L11.3682 1.6896H0.656494V20.7944L11.3682 20.7774ZM43.9055 9.93241H38.2476V5.26016H43.9214V9.93241H43.9055ZM47.6382 10.6829V4.29235L44.9936 1.70662H34.5161V20.7944H38.2317V13.503H41.5786L43.9555 20.7774H47.7051L45.1104 13.2023L47.6382 10.6829ZM60.6428 9.93241H54.969V5.26016H60.6428V9.93241ZM64.3584 10.6829V4.29235L61.7138 1.70662H51.2363V20.7944H54.9519V13.503H58.2994L60.6762 20.7774H64.4253L61.8312 13.2023L64.3584 10.6829ZM72.1912 20.7944H75.9238V13.2193L81.8484 1.70662H77.8315L74.049 9.09849L70.3169 1.70662H66.3166L72.2082 13.2857L72.1912 20.7944ZM98.4517 20.7944L101.063 18.2076V12.702L98.9373 10.4328L91.6734 8.76435V5.27718H97.3473V7.66323H101.063V4.29235L98.4517 1.70662H90.5854L87.9578 4.29235V9.79853L90.1333 12.1182L97.3473 13.7361V17.2239H91.6734V14.8378H87.9578V18.2246L90.5854 20.8114L98.4517 20.7944ZM87.171 1.6896H84.2252L82.0662 5.96134H84.6603L87.171 1.6896Z" fill="#151517"/>
</svg>
