<svg width="105" height="22" viewBox="0 0 105 22" fill="none" xmlns="http://www.w3.org/2000/svg">
<path d="M96.5879 10.7483C97.2451 10.5983 97.9318 10.6446 98.5629 10.8816C99.194 11.1186 99.7415 11.5357 100.137 12.0812L93.9929 13.4722C94.105 12.8116 94.4118 12.1997 94.8739 11.7146C95.3361 11.2295 95.9325 10.8934 96.5868 10.7494M100.171 15.8628C99.6853 16.5661 98.9519 17.0599 98.1176 17.2451C97.4561 17.3975 96.7642 17.3501 96.1296 17.109C95.4951 16.8679 94.9463 16.4439 94.553 15.8907L100.715 14.4965L101.718 14.2687L103.638 13.8355C103.626 13.423 103.573 13.0127 103.477 12.6111C102.696 9.29613 99.3205 7.22908 95.9375 7.99441C92.5546 8.75975 90.4455 12.0683 91.227 15.3833C92.0074 18.6984 95.3828 20.7654 98.7658 20.0012C99.7058 19.793 100.585 19.3703 101.335 18.7662C102.084 18.162 102.684 17.3927 103.087 16.5184L100.171 15.8628ZM85.6694 19.8335V11.0418H83.7731V8.04708H85.6705V3.92696H88.8922V8.04816H91.3119V11.0429H88.8922V19.8335H85.6694ZM79.5152 19.8335H82.6272V8.04708H79.5152V19.8335ZM79.111 3.91406C79.111 2.82303 79.971 2.00502 81.0846 2.00502C82.1972 2.00502 83.0325 2.82303 83.0325 3.91406C83.0325 5.00509 82.1972 5.8489 81.0846 5.8489C79.972 5.8489 79.111 5.00509 79.111 3.91406ZM78.4327 8.08148C76.8417 8.16425 75.9033 8.40825 74.9498 9.09942V8.04816H71.8399V19.8335H74.9487V14.0526C74.9487 12.2339 75.3926 11.1998 78.4316 11.0977L78.4327 8.08148ZM61.0944 14.1257C61.1718 15.8456 62.6693 17.2881 64.5021 17.2881C66.3597 17.2881 67.8829 15.7703 67.8829 13.9741C67.8829 12.2038 66.3597 10.686 64.501 10.686C62.6693 10.686 61.1718 12.1532 61.0944 13.8484V14.1257ZM58.0609 19.8335V2.42423L61.1718 1.72124V8.92421C62.1339 8.15565 63.2723 7.83318 64.5118 7.83318C68.0538 7.83318 70.8864 10.5613 70.8864 13.9817C70.8864 17.3784 68.0538 20.1559 64.5118 20.1559C63.2723 20.1559 62.1339 19.8335 61.1718 19.0649V19.8324L58.0609 19.8335ZM51.439 19.8335V10.9816H49.5406V8.04708H51.438V3.92266L54.6597 3.19387V8.04708H57.0805V10.9816H54.6597V19.8324L51.439 19.8335ZM45.7363 19.8335V13.5366C45.7363 11.2557 44.4969 10.7602 43.2563 10.7602C42.0158 10.7602 40.7775 11.231 40.7775 13.4872V19.8335H37.6665V8.04708H40.7775V8.92421C41.4611 8.42868 42.2953 7.83318 43.94 7.83318C46.5705 7.83318 48.8484 9.34558 48.8484 13.04V19.8324L45.7363 19.8335ZM29.7869 10.7505C30.444 10.6007 31.1305 10.6471 31.7614 10.8841C32.3922 11.121 32.9395 11.5381 33.3354 12.0834L27.193 13.4722C27.3052 12.8116 27.6119 12.1997 28.0741 11.7146C28.5362 11.2295 29.1326 10.8945 29.7869 10.7505ZM33.3709 15.8617C32.8855 16.565 32.152 17.0588 31.3177 17.244C30.6562 17.3964 29.9643 17.3491 29.3298 17.108C28.6952 16.8668 28.1465 16.4428 27.7531 15.8896L33.9148 14.4955L34.9178 14.2676L36.8377 13.8344C36.8253 13.4219 36.7713 13.0117 36.6764 12.6101C35.896 9.29505 32.5206 7.228 29.1377 7.99334C25.7547 8.75868 23.6456 12.0672 24.4271 15.3823C25.2076 18.6973 28.583 20.7643 31.967 20.0001C32.907 19.7919 33.7862 19.3692 34.5358 18.7651C35.2855 18.1609 35.8853 17.3917 36.2884 16.5174L33.3709 15.8617ZM17.0969 19.8324L12.266 8.04708H15.6564L18.7169 16.0401L21.8031 8.04708H25.1936L20.3616 19.8324H17.0969ZM6.16549 10.7451C6.82267 10.5951 7.50945 10.6414 8.14051 10.8784C8.77156 11.1154 9.31909 11.5325 9.71505 12.078L3.57266 13.4689C3.68452 12.8084 3.99105 12.1962 4.45298 11.711C4.91491 11.2257 5.51122 10.8894 6.16549 10.7451ZM9.74945 15.8585C9.26422 16.5622 8.53075 17.0564 7.69625 17.2419C6.29664 17.5579 4.90133 16.9785 4.13165 15.8875L10.2934 14.4922L11.2974 14.2654L13.2162 13.8312C13.2041 13.4191 13.1505 13.0092 13.0561 12.6079C12.2746 9.29076 8.90022 7.22478 5.51621 7.99011C2.13327 8.75545 0.0252508 12.064 0.805681 15.3801C1.58719 18.6951 4.9626 20.7622 8.34554 19.9969C9.28557 19.7887 10.1647 19.366 10.9144 18.7619C11.664 18.1577 12.2638 17.3884 12.6669 16.5141L9.74945 15.8585Z" fill="#151517"/>
</svg>
