<svg width="113" height="22" viewBox="0 0 113 22" fill="none" xmlns="http://www.w3.org/2000/svg">
<path d="M35.3269 3.71611L40.6591 17.7121H37.7098L36.5819 14.7119H30.7152L29.5873 17.7212H26.6982L32.0009 3.72633L35.3269 3.71611ZM31.631 12.2767H35.648L33.6361 6.89909L31.631 12.2767ZM54.0253 17.7212H51.4948L44.8508 8.06902V17.7212H42.0593V3.72633H45.0074L51.2429 12.8997V3.71611H54.0344L54.0253 17.7212ZM56.5149 3.71611H61.408C65.8834 3.71611 68.6069 6.4486 68.6069 10.7141C68.6069 14.9797 65.8834 17.7121 61.408 17.7121H56.5149V3.71611ZM61.408 15.2679C64.1518 15.2679 65.7371 13.475 65.7371 10.7334C65.7371 7.95328 64.1518 6.18987 61.3887 6.18987H59.3654V15.2679H61.408ZM70.1921 12.1235V3.72633H73.1107V12.027C73.1107 14.3862 74.2783 15.4018 76.0497 15.4018C77.829 15.4018 78.9966 14.3862 78.9966 12.027V3.72633H81.905V12.1235C81.905 15.9862 79.5413 17.913 76.0384 17.913C72.5354 17.913 70.1921 15.9862 70.1921 12.1235ZM87.0806 17.7212H84.1711V3.72633H89.989C93.2571 3.72633 95.2905 5.24122 95.2905 8.13597C95.2905 10.2546 94.1229 11.6821 92.1291 12.2483L95.6696 17.7212H92.3425L89.0642 12.5161H87.0806V17.7212ZM89.8335 10.1195C91.5357 10.1195 92.4015 9.39101 92.4015 8.14505C92.4015 6.8798 91.5254 6.1615 89.8335 6.1615H87.0806V10.1195H89.8335ZM100.135 17.7224H97.2276V3.72633H100.146L100.135 17.7224ZM102.606 3.71498H105.524V15.2372H112.052V17.7201H102.615L102.606 3.71498ZM23.1578 13.7348C21.9415 13.1354 20.8178 12.3637 19.8216 11.4438C17.174 9.02699 15.5692 5.67583 15.3461 2.09796L15.3178 1.26392V1.18448C15.32 1.15451 15.3125 1.12463 15.2966 1.09913C15.2807 1.07364 15.2571 1.05386 15.2293 1.04264C15.2117 1.03402 15.1921 1.03011 15.1725 1.03129H9.56799C9.54807 1.03126 9.52834 1.03527 9.51001 1.04307C9.49168 1.05087 9.47512 1.0623 9.46132 1.07668C9.44803 1.09117 9.43777 1.10817 9.43115 1.12669C9.42452 1.1452 9.42166 1.16485 9.42274 1.18448V1.26392L9.39324 2.09796C9.1936 5.26428 7.91249 8.26597 5.7643 10.6007C5.52146 10.8685 5.25934 11.1272 4.99607 11.3677C4.23127 12.0874 3.3895 12.7207 2.486 13.256C2.21593 13.4118 1.94057 13.5586 1.6599 13.6963C1.64265 13.7042 1.62716 13.7154 1.61435 13.7294C1.60154 13.7434 1.59167 13.7599 1.58532 13.7777C1.57897 13.7956 1.57628 13.8146 1.57739 13.8335C1.57851 13.8525 1.58341 13.871 1.59182 13.888C1.71778 14.1763 1.84373 14.4441 1.98104 14.6937C2.47125 15.6287 3.08969 16.4934 3.81934 17.2628C4.03267 17.4931 4.26643 17.7133 4.50019 17.9334C6.66828 19.8848 9.48114 20.9659 12.3981 20.9689C14.0039 20.9729 15.5937 20.6498 17.0706 20.0193C18.5474 19.3887 19.8804 18.464 20.9881 17.3014C21.7188 16.5366 22.3411 15.6752 22.8378 14.7414C22.9791 14.4756 23.1086 14.2038 23.2259 13.9266C23.2343 13.9096 23.2392 13.8911 23.2403 13.8721C23.2414 13.8532 23.2387 13.8342 23.2324 13.8163C23.226 13.7984 23.2161 13.782 23.2033 13.768C23.1905 13.754 23.175 13.7427 23.1578 13.7348ZM6.28061 17.4818C6.28193 17.5093 6.2755 17.5367 6.26207 17.5607C6.24863 17.5848 6.22871 17.6046 6.20459 17.618C6.1798 17.6315 6.15165 17.6376 6.12349 17.6356C6.09533 17.6336 6.06834 17.6235 6.04572 17.6066C5.62911 17.2937 5.23582 16.9508 4.86898 16.5808C4.21658 15.9149 3.65736 15.1636 3.20657 14.3476C3.18776 14.3155 3.18234 14.2772 3.19147 14.2412C3.2006 14.2051 3.22355 14.174 3.25537 14.1547C4.35484 13.494 5.36767 12.6989 6.2704 11.7876C8.16694 9.88055 9.5119 7.4957 10.1626 4.88604C10.1626 4.8467 10.1766 4.81266 10.2046 4.78392C10.2322 4.75689 10.2692 4.74175 10.3078 4.74175C10.3465 4.74175 10.3835 4.75689 10.4111 4.78392C10.4378 4.81124 10.4528 4.84785 10.4531 4.88604C10.7186 6.2364 11.1328 7.55498 11.69 8.81682C11.6991 8.83636 11.7038 8.85767 11.7038 8.87923C11.7038 8.9008 11.6991 8.9221 11.69 8.94165C10.7397 10.9012 9.44038 12.6711 7.85565 14.1649C7.61541 14.375 7.38805 14.5993 7.1748 14.8367C6.5917 15.506 6.27046 16.3637 6.2704 17.2514V17.4818H6.28061ZM15.7444 14.7016C15.7613 14.7169 15.7743 14.736 15.7822 14.7573C15.7902 14.7787 15.7929 14.8016 15.7901 14.8242C15.7873 14.8468 15.7791 14.8684 15.7662 14.8871C15.7534 14.9059 15.7362 14.9213 15.7161 14.932C14.7232 15.5094 13.5965 15.8169 12.448 15.8239H12.4185C11.2333 15.8225 10.0705 15.501 9.05281 14.8934C9.02609 14.8761 9.00568 14.8506 8.99464 14.8208C8.98359 14.7909 8.9825 14.7583 8.99154 14.7277C8.99677 14.707 9.00778 14.6881 9.02331 14.6733C9.31494 14.3862 9.60771 14.0787 9.86983 13.7723C10.7788 12.7499 11.5742 11.6344 12.2437 10.4463C12.2567 10.4244 12.2751 10.4061 12.2971 10.3934C12.3192 10.3807 12.3442 10.3739 12.3697 10.3737C12.3954 10.3737 12.4206 10.3804 12.4429 10.3931C12.4652 10.4059 12.4838 10.4242 12.4968 10.4463C13.3746 12.0133 14.4682 13.4492 15.7456 14.7119L15.7444 14.7016ZM7.92373 15.7944C7.94582 15.7624 7.97967 15.7403 8.01792 15.7331C8.05617 15.7259 8.09573 15.734 8.12799 15.7558C9.40132 16.5955 10.8933 17.0425 12.4185 17.0415L12.7691 17.0313C13.0755 17.0177 13.3804 16.9859 13.6837 16.936C14.7709 16.7582 15.8084 16.3529 16.7283 15.7468C16.7547 15.7296 16.7859 15.7213 16.8173 15.7231C16.8488 15.725 16.8788 15.7368 16.903 15.757C17.5476 16.2986 18.2254 16.7968 18.9365 17.2514C18.9562 17.2648 18.9723 17.2827 18.9836 17.3036C18.9949 17.3246 19.0009 17.3479 19.0012 17.3717C19.0009 17.3955 18.9949 17.4189 18.9836 17.4398C18.9723 17.4607 18.9562 17.4786 18.9365 17.492C17.1012 18.9251 14.8446 19.7132 12.5161 19.7343H12.4287C11.9506 19.7327 11.473 19.7008 10.9989 19.639C9.9659 19.5021 8.95918 19.2115 8.01224 18.7765C7.98862 18.7658 7.96827 18.7489 7.95324 18.7277C7.64413 18.302 7.47606 17.7903 7.4726 17.2642C7.46914 16.7381 7.63047 16.2241 7.93395 15.7944H7.92373ZM17.6327 14.8367L16.9325 14.2126C15.2928 12.6767 13.9563 10.8464 12.9927 8.81682C12.8156 8.44538 12.6534 8.06827 12.5059 7.68548C11.8458 5.99923 11.4519 4.22065 11.3382 2.41342C11.3357 2.39292 11.3376 2.37212 11.3436 2.35238C11.3497 2.33264 11.3598 2.31439 11.3734 2.29881C11.3874 2.28325 11.4046 2.27085 11.4237 2.26244C11.4429 2.25402 11.4636 2.24979 11.4846 2.25001H14.0139C14.0426 2.24813 14.0712 2.25464 14.0961 2.26875C14.1211 2.28286 14.1415 2.30395 14.1547 2.32945C14.1641 2.34607 14.1692 2.36481 14.1694 2.38392L14.2477 3.19867C14.7344 6.82599 16.5254 10.1519 19.286 12.5547C19.9918 13.172 20.7544 13.7235 21.5623 14.2035C21.5936 14.223 21.6162 14.2538 21.6252 14.2896C21.6343 14.3253 21.6293 14.3632 21.6111 14.3953C21.1931 15.1399 20.6834 15.8291 20.0939 16.4469C20.0712 16.4723 20.0403 16.489 20.0065 16.4942C19.9728 16.4993 19.9383 16.4927 19.909 16.4753C19.1091 15.9886 18.3481 15.4408 17.6327 14.8367Z" fill="#151517"/>
</svg>
