<svg width="71" height="22" viewBox="0 0 71 22" fill="none" xmlns="http://www.w3.org/2000/svg">
<path d="M15.785 4.72823C15.7144 4.72142 14.3417 4.701 14.3417 4.701C14.3417 4.701 13.1937 3.58619 13.0805 3.473C13.0367 3.43196 12.981 3.40601 12.9214 3.39897V20.4547L18.0665 19.1765L15.9535 4.88566C15.947 4.84438 15.9269 4.80645 15.8964 4.77792C15.8658 4.74939 15.8266 4.7319 15.785 4.72823Z" fill="#151517"/>
<path fill-rule="evenodd" clip-rule="evenodd" d="M15.7841 4.72741C15.8258 4.73086 15.8651 4.74815 15.8958 4.77652C15.9265 4.8049 15.9468 4.84273 15.9535 4.88399L18.0656 19.1748L12.9205 20.4539L1.04907 18.4013C1.04907 18.4013 2.46598 7.4472 2.5179 7.05999C2.58853 6.54939 2.60555 6.53323 3.14763 6.36303L4.10501 6.06603L4.98664 5.79371C5.10068 4.97335 5.5049 3.91385 6.03507 3.07051C6.78991 1.87401 7.72005 1.20002 8.65445 1.17279C9.13866 1.15832 9.54204 1.32256 9.85691 1.65956L9.92244 1.7353L9.93945 1.73359C9.98371 1.72962 10.0282 1.72707 10.0731 1.72593H10.0756C10.799 1.72764 11.3972 2.13952 11.8065 2.91989C11.9333 3.16157 12.0218 3.4024 12.0823 3.59813L12.3291 3.52154L12.6592 3.41942C12.7443 3.39389 12.9665 3.35985 13.0805 3.47303C13.1937 3.58622 14.3417 4.70103 14.3417 4.70103C14.3417 4.70103 15.7143 4.72145 15.7841 4.72741ZM10.8977 3.96491L11.4883 3.78195C11.341 3.30369 10.9921 2.50205 10.2833 2.36759C10.5037 2.93605 10.5598 3.59473 10.5666 4.06703L10.8977 3.96491ZM7.96344 4.87293L9.94626 4.25936C9.95222 3.7428 9.8952 2.97946 9.63735 2.43992C9.38137 2.55438 9.15232 2.72138 8.96506 2.9301C8.51829 3.40921 8.15491 4.13852 7.96344 4.87293ZM9.23483 1.94124C9.06748 1.83494 8.87114 1.78348 8.67317 1.79401C7.23073 1.83486 5.9738 4.08746 5.65212 5.58777L6.57546 5.30183L7.28008 5.08397C7.46135 4.13086 7.91578 3.14285 8.50893 2.50545C8.73926 2.25979 8.98123 2.07172 9.23483 1.94124ZM9.47226 9.60873L10.0697 7.37316C10.0697 7.37316 9.55395 7.11616 8.54722 7.18084C5.93466 7.34593 4.75007 9.17302 4.8641 10.9763C4.93984 12.1805 5.64872 12.6842 6.2708 13.1251C6.75587 13.4689 7.18733 13.7752 7.22392 14.3471C7.24349 14.662 7.04776 15.1079 6.49972 15.1428C5.66063 15.1955 4.61305 14.4041 4.61305 14.4041L4.21223 16.1087C4.21223 16.1087 5.25301 17.2235 7.14392 17.1043C8.71997 17.0048 9.81351 15.7444 9.69692 13.902C9.60757 12.4851 8.6102 11.846 7.82217 11.3405C7.30647 11.0103 6.88097 10.7363 6.85629 10.3414C6.84437 10.1585 6.85629 9.42747 8.01535 9.35429C8.5137 9.33103 9.01107 9.41846 9.47226 9.60873Z" fill="#151517"/>
<path d="M24.8434 12.0554C24.2519 11.7337 23.9481 11.4631 23.9481 11.0912C23.9481 10.6181 24.3702 10.3134 25.0289 10.3134C25.7974 10.3134 26.4833 10.6351 26.4833 10.6351L27.0237 8.9782C27.0237 8.9782 26.5267 8.58929 25.0629 8.58929C23.0264 8.58929 21.6154 9.75516 21.6154 11.395C21.6154 12.3252 22.2741 13.0349 23.1532 13.5413C23.863 13.9472 24.1174 14.2348 24.1174 14.6561C24.1174 15.096 23.7617 15.4509 23.103 15.4509C22.121 15.4509 21.1933 14.9437 21.1933 14.9437L20.6189 16.6006C20.6189 16.6006 21.4759 17.175 22.9167 17.175C25.0136 17.175 26.5173 16.1445 26.5173 14.285C26.5173 13.2885 25.7565 12.5788 24.8434 12.0554ZM33.1919 8.57312C32.1622 8.57312 31.3503 9.0633 30.7248 9.80707L30.6907 9.79005L31.5869 5.10786H29.2551L26.9896 17.0235H29.3215L30.0993 12.9507C30.404 11.4121 31.198 10.4657 31.9417 10.4657C32.466 10.4657 32.6685 10.8215 32.6685 11.3287C32.6685 11.6495 32.6345 12.0384 32.5672 12.3592L31.689 17.0235H34.0208L34.9339 12.2069C35.0361 11.6997 35.1033 11.0921 35.1033 10.6862C35.1024 9.36711 34.4089 8.57312 33.1919 8.57312ZM40.3762 8.57312C37.5704 8.57312 35.7118 11.1082 35.7118 13.9302C35.7118 15.7385 36.8266 17.192 38.9227 17.192C41.6774 17.192 43.5369 14.7241 43.5369 11.8342C43.5369 10.1611 42.5566 8.57312 40.3762 8.57312ZM39.2273 15.4015C38.4325 15.4015 38.0946 14.725 38.0946 13.88C38.0946 12.5447 38.7874 10.3653 40.0554 10.3653C40.8834 10.3653 41.1532 11.0742 41.1532 11.7678C41.1532 13.2043 40.4613 15.4015 39.2273 15.4015ZM49.5026 8.57312C47.9282 8.57312 47.0346 9.95855 47.0346 9.95855H47.0006L47.1368 8.70758H45.0739C44.9483 9.74337 44.7905 10.775 44.6007 11.801L42.9778 20.3365H45.3105L45.953 16.8882H46.004C46.004 16.8882 46.4823 17.192 47.3725 17.192C50.1111 17.192 51.9025 14.3871 51.9025 11.5465C51.9025 9.97557 51.2089 8.57312 49.5026 8.57312ZM47.2712 15.4347C46.6653 15.4347 46.307 15.0969 46.307 15.0969L46.6959 12.9166C46.9665 11.4631 47.7274 10.4998 48.5384 10.4998C49.2481 10.4998 49.4677 11.1585 49.4677 11.7848C49.4677 13.2885 48.5724 15.4347 47.2712 15.4347ZM55.2334 5.22615C54.4896 5.22615 53.8973 5.81759 53.8973 6.57838C53.8973 7.2711 54.3372 7.74425 54.9968 7.74425H55.0308C55.7576 7.74425 56.3823 7.25408 56.3993 6.39287C56.3993 5.71632 55.9431 5.22615 55.2334 5.22615ZM51.9714 17.0235H54.3032L55.8929 8.75864H53.5433L51.9714 17.0235ZM61.8263 8.74247H60.2033L60.2876 8.35357C60.4229 7.55873 60.8961 6.849 61.6731 6.849C62.0884 6.849 62.4169 6.96729 62.4169 6.96729L62.873 5.1419C62.873 5.1419 62.4679 4.93936 61.605 4.93936C60.7769 4.93936 59.9497 5.17594 59.3242 5.71632C58.5294 6.39287 58.1575 7.37237 57.9711 8.35357L57.9047 8.74247H56.8222L56.4844 10.4998H57.5669L56.3329 17.0235H58.6647L59.8987 10.4998H61.5054L61.8263 8.74247ZM67.437 8.75949C67.437 8.75949 65.9784 12.4324 65.3239 14.4374H65.2899C65.2457 13.7923 64.7155 8.75949 64.7155 8.75949H62.2645L63.6679 16.3478C63.7019 16.5163 63.6849 16.6185 63.6168 16.7368C63.3462 17.2601 62.89 17.7673 62.3488 18.1392C61.9097 18.46 61.4195 18.6634 61.0314 18.7987L61.6731 20.7756C62.1462 20.6743 63.1266 20.2854 63.9547 19.5076C65.0201 18.5119 65.9997 16.9733 67.0141 14.8773L69.8701 8.75864L67.437 8.75949Z" fill="#151517"/>
</svg>
