<svg width="78" height="22" viewBox="0 0 78 22" fill="none" xmlns="http://www.w3.org/2000/svg">
<path d="M67.5803 15.8031C67.0894 15.8031 66.7096 15.8031 66.4776 15.4395C65.8028 13.5868 65.1205 11.7368 64.4307 9.88962L64.073 8.90446C63.4514 7.19308 62.0187 6.21282 60.1098 6.21282C58.9777 6.21282 57.795 6.70132 56.939 7.32623L57.6953 7.93073C58.1854 7.53699 58.8977 7.13998 59.5601 7.13998C61.108 7.13998 61.937 7.86129 62.4802 9.35374L62.8608 10.401C62.0741 9.92133 61.1692 9.67042 60.2479 9.67641C58.3855 9.67641 56.4987 10.8977 56.4987 13.2315C56.4987 15.5433 58.0629 16.7645 61.0214 16.7645C62.9621 16.7645 64.1081 16.0187 64.7003 15.4551L65.0548 16.4304H67.9381L67.6996 15.8039H67.5803V15.8031ZM60.858 16.1837C59.186 16.1837 58.1724 14.9976 58.1724 13.3017C58.1724 12.2071 58.3496 10.3667 60.5631 10.3667C61.5053 10.3631 62.4219 10.6729 63.1688 11.2473L64.3654 14.5352C63.9325 15.6576 62.3356 16.1837 60.858 16.1837ZM44.0711 15.8031C43.581 15.8031 43.202 15.8031 42.9692 15.4395C42.2941 13.5869 41.6118 11.7369 40.9223 9.88962L40.5645 8.90446C39.9421 7.19308 38.5103 6.21363 36.6014 6.21363C35.4685 6.21363 34.4385 6.70213 33.5833 7.32705L34.3397 7.93154C34.8289 7.53781 35.5412 7.1408 36.2044 7.1408C37.7514 7.1408 38.4286 7.86211 38.9709 9.35456L39.3524 10.4018C38.5656 9.92215 37.6608 9.67124 36.7394 9.67723C34.8771 9.67723 33.1455 10.8985 33.1455 13.2323C33.1455 15.5441 34.5561 16.7653 37.5138 16.7653C39.4545 16.7653 40.6013 16.0195 41.1935 15.4559L41.5479 16.4312H44.4313L44.1919 15.8047H44.0735L44.0711 15.8031ZM37.3488 16.1837C35.6776 16.1837 34.8167 14.9976 34.8167 13.3017C34.8167 12.2071 34.8412 10.3667 37.0547 10.3667C37.9969 10.3631 38.9135 10.6729 39.6603 11.2473L40.8569 14.5352C40.424 15.6576 38.8272 16.1837 37.3488 16.1837ZM25.9707 15.8031C25.4798 15.8031 25.1 15.8031 24.868 15.4395C24.1927 13.587 23.5104 11.737 22.8211 9.88962L22.4633 8.90446C21.8409 7.19308 20.4091 6.21363 18.5002 6.21363C17.3673 6.21363 16.1854 6.70213 15.3294 7.32705L16.0857 7.93154C16.5758 7.53781 17.2881 7.1408 17.9505 7.1408C19.4983 7.1408 20.3274 7.86211 20.8697 9.35456L21.2512 10.4018C20.4644 9.92215 19.5596 9.67124 18.6382 9.67723C16.7759 9.67723 14.8916 10.8985 14.8916 13.2323C14.8916 15.5441 16.4549 16.7653 19.4126 16.7653C21.3533 16.7653 22.5001 16.0195 23.0923 15.4559L23.4468 16.4312H26.3301L26.0916 15.8047H25.9723L25.9707 15.8031ZM19.2484 16.1837C17.5764 16.1837 16.5627 14.9976 16.5627 13.3017C16.5627 12.2071 16.74 10.3667 18.9535 10.3667C19.8957 10.3631 20.8123 10.6729 21.5591 11.2473L22.7557 14.5352C22.3228 15.6576 20.726 16.1837 19.2476 16.1837M52.3673 15.3342L49.4187 6.51833H47.4665L49.3223 11.7578L47.6772 15.7018L44.6077 6.51833H42.6555L46.1343 16.3422L46.1645 16.4255H47.9599L49.6082 12.5625L50.9771 16.4255H52.7725L56.1949 6.51833H55.4875L52.3673 15.3342ZM76.9638 6.51507H75.322L75.4747 12.4293V13.2789C75.4747 14.5532 74.3802 15.7671 73.1215 15.964C72.9132 15.9967 72.1928 15.9909 71.9331 15.964C70.6662 15.8333 69.5807 14.5532 69.5807 13.2789V12.4293L69.7326 6.51507H68.0908V14.0606C68.0908 15.2051 69.0252 17.1199 72.0858 17.1199H72.968C73.8403 17.1199 74.845 16.6338 75.4388 16.1445C75.3571 16.9157 75.2795 17.699 75.0435 18.2227C74.7167 18.9521 73.9702 19.8229 72.2508 19.8229C70.578 19.8229 68.8268 18.3836 68.6593 18.132L68.6185 18.0691L68.0925 18.1181L68.1709 18.279C68.1831 18.3019 69.5104 20.6398 72.3431 20.7926C74.4488 20.9061 75.7214 20.0574 76.4271 18.27C76.4688 18.1606 76.5096 18.0184 76.5472 17.8567C76.8143 16.8062 76.9148 15.3848 76.9491 14.3049C76.9583 14.2205 76.9632 14.1382 76.9638 14.0582V13.7257C76.9719 13.1261 76.9638 12.7291 76.9638 12.7291V6.51507ZM28.7462 8.21827V6.47585H26.9655V16.4255H28.8997V9.01065C29.2493 8.42413 30.1004 7.77389 31.1272 7.77389C31.7038 7.77389 31.9538 7.90459 32.3556 8.12106V6.45952C32.0551 6.35169 32.0812 6.28552 31.4784 6.28552C30.5766 6.28552 29.1726 7.60887 28.7478 8.21827H28.7462ZM8.13005 14.9682C4.63331 14.9682 2.34708 11.284 2.34708 7.97729C2.34708 6.07558 2.7808 4.51043 3.89247 3.44684C4.871 2.51233 6.22526 1.99687 7.71348 1.99687C9.15922 1.99687 10.2725 2.90361 10.9497 3.66414C11.4046 4.17526 11.7907 4.74374 12.0981 5.35509L12.1585 5.48252L13.8248 4.42629C13.7268 4.21472 13.1175 3.53262 12.9288 3.33411C11.853 2.20763 10.587 1.19714 7.75514 1.19714C5.06949 1.19714 3.42118 2.5205 2.51126 3.63228C1.39468 4.99729 0.755127 6.81241 0.755127 8.61119C0.755127 9.74585 0.95116 11.9228 2.26703 13.7625C3.49224 15.4763 5.38232 16.3822 7.73472 16.3822C11.1694 16.3822 13.0145 14.0296 13.8771 12.4122L13.1207 12.0911C11.7509 14.0231 10.1075 14.9682 8.13168 14.9682H8.13005Z" fill="#151517"/>
</svg>
