<svg width="20" height="20" viewBox="0 0 20 20" fill="none" xmlns="http://www.w3.org/2000/svg">
<path d="M2.91449 5.83333C2.91449 3.99238 4.40687 2.5 6.24782 2.5C8.08877 2.5 9.58112 3.99238 9.58112 5.83333C9.58112 7.67428 8.08877 9.16667 6.24782 9.16667C4.40687 9.16667 2.91449 7.67428 2.91449 5.83333Z" fill="#151517"/>
<path d="M10.4145 5.83333C10.4145 3.99238 11.9069 2.5 13.7478 2.5C15.5888 2.5 17.0812 3.99238 17.0812 5.83333C17.0812 7.67428 15.5888 9.16667 13.7478 9.16667C11.9069 9.16667 10.4145 7.67428 10.4145 5.83333Z" fill="#151517"/>
<path d="M6.24826 10C8.89717 10 11.3649 12.0113 11.9662 15.6388C12.1377 16.6728 11.3007 17.5 10.3541 17.5H2.14241C1.19584 17.5 0.35883 16.6728 0.530254 15.6388C1.13163 12.0113 3.59938 10 6.24826 10Z" fill="#151517"/>
<path d="M13.6112 15.3662C13.2877 13.4147 12.4799 11.7832 11.3563 10.5843C12.101 10.1988 12.916 10 13.7489 10C16.3978 10 18.8656 12.0113 19.4669 15.6388C19.6383 16.6728 18.8013 17.5 17.8548 17.5H13.2396C13.586 16.8995 13.7444 16.1696 13.6112 15.3662Z" fill="#151517"/>
</svg>
