<svg width="20" height="20" viewBox="0 0 20 20" fill="none" xmlns="http://www.w3.org/2000/svg">
<path fill-rule="evenodd" clip-rule="evenodd" d="M9.45817 1.80487C9.80933 1.68418 10.1907 1.68418 10.5418 1.80487L16.3752 3.81008C17.0482 4.04143 17.5 4.67457 17.5 5.38623V9.92676C17.5 12.2658 16.5426 13.9513 15.1562 15.2638C13.8459 16.5043 12.1293 17.43 10.5266 18.2943L10.3957 18.3648C10.1487 18.4981 9.85125 18.4981 9.60433 18.3648L9.47342 18.2943C7.8707 17.43 6.15411 16.5043 4.84375 15.2638C3.45742 13.9513 2.5 12.2658 2.5 9.92676V5.38623C2.5 4.67457 2.95187 4.04143 3.62487 3.81008L9.45817 1.80487ZM10 6.66634C8.84942 6.66634 7.91667 7.59908 7.91667 8.74967C7.91667 9.60401 8.43083 10.3382 9.16667 10.6597V12.4997C9.16667 12.9599 9.53975 13.333 10 13.333C10.4602 13.333 10.8333 12.9599 10.8333 12.4997V10.6597C11.5692 10.3382 12.0833 9.60401 12.0833 8.74967C12.0833 7.59908 11.1506 6.66634 10 6.66634Z" fill="#151517"/>
</svg>
